<svg width="247" height="749" viewBox="0 0 247 749" fill="none" xmlns="http://www.w3.org/2000/svg">
<path fill-rule="evenodd" clip-rule="evenodd" d="M66.2139 310.813C70.0555 305.133 72.4012 299.726 73.0045 295.273L74 295.34V368.498L73.8882 368.635L73.5 368.32C73.8882 368.635 73.8886 368.635 73.8882 368.635L73.8858 368.638L73.7397 368.818C73.6418 368.938 73.4962 369.116 73.3053 369.35C72.9237 369.816 72.3612 370.502 71.6376 371.379C70.1903 373.133 68.0983 375.653 65.5185 378.716C60.3593 384.842 53.2485 393.143 45.4434 401.843C37.639 410.541 29.1365 419.642 21.1944 427.366C13.2623 435.079 5.85573 441.452 0.248512 444.664L-0.5 445.093V349.824L-0.0459377 349.782C19.9372 347.938 37.6014 338.814 50.5802 327.873C57.0685 322.403 62.3772 316.487 66.2139 310.813ZM73 368.142V299.671C71.8304 303.307 69.8032 307.291 67.0423 311.374C63.1491 317.131 57.7765 323.114 51.2248 328.637C38.2217 339.599 20.5399 348.773 0.5 350.735V443.355C5.89709 440.086 12.9229 434.014 20.4972 426.649C28.4166 418.947 36.9022 409.865 44.6991 401.175C52.4952 392.486 59.5988 384.193 64.7536 378.072C67.3309 375.011 69.4208 372.494 70.8663 370.742C71.589 369.866 72.1505 369.182 72.5313 368.716C72.7218 368.484 72.867 368.306 72.9645 368.186L73 368.142Z" fill="#D9E2FC"/>
<path fill-rule="evenodd" clip-rule="evenodd" d="M73 291L73.9932 290.918C74.2232 292.298 74.2105 293.81 73.9955 295.407L73 295.34V291Z" fill="#D9E2FC"/>
<path d="M109.5 191.82C107.5 190.82 97.5 149.82 94.5 146.82C91.5 143.82 75.55 143.45 75.55 143.45C63.6 137.08 43.5 135.82 43.5 135.82C24.5 132.82 3.53 148.73 5.5 151.82C4.07 150.15 2.13 149.11 0 148.49V161.17C2.11 162 3.5 162.81 3.5 162.81C3.5 189.81 14.5 207.81 40.5 211.81C66.5 215.81 78.5 184.81 80.5 172.81C82.5 160.81 91.5 158.81 93.5 162.81C95.5 166.81 105.07 196.81 105.07 196.81C105.07 196.81 111.5 192.81 109.5 191.81V191.82Z" fill="#D9E2FC"/>
<path d="M7.49997 171.82C7.49997 171.82 3.49997 143.82 35.5 140.82C67.5 137.82 75.5 166.82 75.5 166.82C75.5 166.82 77.5 193.82 56.5 204.82C35.5 215.82 7.49997 201.82 7.49997 171.82Z" fill="#F0F3FE"/>
<path fill-rule="evenodd" clip-rule="evenodd" d="M67.1233 153.024C61.2125 146.251 51.3631 139.835 35.5466 141.318C27.6212 142.061 21.9619 144.348 17.922 147.332C13.8824 150.315 11.4342 154.017 9.96311 157.633C8.49043 161.254 7.99762 164.788 7.87442 167.422C7.81287 168.737 7.84372 169.824 7.88967 170.581C7.91264 170.959 7.93937 171.254 7.96015 171.453C7.97055 171.552 7.97945 171.628 7.98565 171.678C7.98876 171.703 7.99118 171.722 7.99278 171.733L7.99454 171.746L7.99492 171.749L7.99997 171.784V171.82C7.99997 201.449 35.6053 215.2 56.268 204.377C66.5984 198.966 71.2866 189.616 73.3912 181.569C74.4431 177.547 74.8457 173.863 74.985 171.185C75.0547 169.846 75.0585 168.76 75.045 168.011C75.0382 167.636 75.0272 167.345 75.0179 167.15C75.0132 167.052 75.009 166.978 75.006 166.928L75.0046 166.906C75.0022 166.898 74.9994 166.888 74.9964 166.878C74.9811 166.826 74.9575 166.748 74.9252 166.645C74.8607 166.439 74.7612 166.135 74.6229 165.748C74.3462 164.974 73.9146 163.867 73.2971 162.548C72.0614 159.906 70.0851 156.418 67.1233 153.024ZM75.5 166.82C75.9986 166.783 75.9986 166.783 75.9987 166.784L75.9987 166.785L75.9991 166.79L76.0002 166.806L76.0041 166.867C76.0074 166.921 76.0119 167 76.0167 167.102C76.0265 167.307 76.0379 167.608 76.0448 167.993C76.0587 168.763 76.0547 169.872 75.9837 171.237C75.8418 173.965 75.4319 177.718 74.3587 181.822C72.2133 190.024 67.4016 199.674 56.732 205.263C35.4025 216.436 7.02099 202.201 6.99998 171.854C6.99817 171.84 6.99592 171.822 6.99328 171.801C6.9863 171.745 6.97665 171.663 6.96556 171.557C6.94338 171.344 6.91542 171.035 6.89151 170.641C6.84371 169.855 6.81206 168.731 6.87551 167.375C7.00231 164.664 7.5095 161.011 9.03682 157.257C10.5657 153.498 13.1175 149.637 17.3279 146.527C21.5381 143.417 27.3787 141.079 35.4533 140.322C51.6369 138.805 61.7875 145.389 67.8767 152.366C70.9149 155.848 72.9385 159.421 74.2029 162.124C74.8353 163.476 75.2787 164.612 75.5646 165.412C75.7075 165.812 75.8111 166.128 75.8794 166.345C75.9135 166.454 75.9388 166.538 75.9557 166.596C75.9642 166.625 75.9706 166.647 75.9749 166.662L75.9799 166.68L75.9813 166.685L75.9817 166.686C75.9819 166.687 75.982 166.687 75.5 166.82ZM75.5 166.82L75.9817 166.686L75.995 166.734L75.9987 166.784L75.5 166.82Z" fill="#D9E2FC"/>
<path fill-rule="evenodd" clip-rule="evenodd" d="M-0.5 0.276611L0.176719 0.532292C2.62366 1.4568 13.5951 5.7674 24.4321 12.4367C29.8504 15.7712 35.2516 19.7054 39.5393 24.1133C43.7278 28.4191 46.8859 33.2102 47.9241 38.3667C47.9917 38.3772 48.0683 38.3893 48.1539 38.4032C48.5333 38.4649 49.0871 38.5615 49.7894 38.7021C51.1938 38.9832 53.193 39.4401 55.5793 40.1442C60.35 41.5519 66.6795 43.9512 72.9013 47.9184C85.2977 55.8228 97.2529 69.9514 95.6071 94.7555C95.6419 94.7647 95.6787 94.7746 95.7175 94.7852C96.0555 94.8776 96.5449 95.0223 97.1591 95.2335C98.3874 95.656 100.116 96.3449 102.13 97.414C106.159 99.5523 111.335 103.213 115.939 109.304C125.152 121.491 131.998 143.301 123.009 181.837L123.027 181.943C123.048 182.077 123.079 182.272 123.117 182.521C123.194 183.02 123.3 183.734 123.417 184.596C123.652 186.321 123.935 188.643 124.123 191.031C124.312 193.414 124.408 195.881 124.264 197.887C124.193 198.889 124.06 199.797 123.84 200.53C123.626 201.245 123.301 201.887 122.777 202.236C122.186 202.63 121.538 202.508 120.97 202.213C120.41 201.923 119.822 201.416 119.226 200.834C118.748 200.367 118.239 199.825 117.712 199.263C117.575 199.117 117.438 198.97 117.299 198.823C116.619 198.102 115.907 197.364 115.163 196.691C113.66 195.329 112.104 194.303 110.521 194.162C108.993 194.026 107.296 194.708 105.469 197.122C105.188 197.492 104.85 197.767 104.446 197.891C104.036 198.016 103.619 197.969 103.221 197.805C102.458 197.49 101.689 196.718 100.92 195.671C99.3631 193.549 97.5866 189.986 95.6856 185.451C91.8763 176.364 87.5043 163.218 83.3427 149.465C79.1798 135.707 75.2226 121.325 72.2435 109.757C70.7539 103.973 69.5083 98.8904 68.6036 94.9394C67.7019 91.0019 67.1312 88.1571 67.0025 86.8698C66.9799 86.6426 66.8708 86.3407 66.6318 85.9625C66.3952 85.588 66.0478 85.1646 65.5854 84.6985C64.6605 83.7662 63.3111 82.6987 61.5726 81.5496C58.0982 79.2533 53.1214 76.6648 47.0145 74.2063C34.8019 69.2899 18.118 64.913 -0.0135939 64.4198L-0.5 64.4066V0.276611ZM122.5 181.82L122.007 181.902L121.99 181.804L122.013 181.706C130.991 143.303 124.131 121.799 115.141 109.907C110.64 103.952 105.586 100.38 101.661 98.2973C99.6987 97.2557 98.0192 96.5869 96.8339 96.1792C96.2413 95.9753 95.7725 95.8369 95.4539 95.7498C95.2946 95.7063 95.173 95.6757 95.0921 95.6561C95.0518 95.6463 95.0216 95.6393 95.0021 95.6349L94.9808 95.6301L94.9762 95.6291L94.58 95.5447V95.112L94.5813 95.0941C96.3555 70.4729 84.5841 56.5537 72.3637 48.7616C66.243 44.8589 60.0063 42.4931 55.2963 41.1033C52.9424 40.4087 50.9726 39.9587 49.5932 39.6826C48.9035 39.5446 48.3617 39.4501 47.9935 39.3902C47.8093 39.3603 47.6687 39.3391 47.5746 39.3254C47.5514 39.322 47.5311 39.3191 47.5137 39.3166C47.4957 39.3141 47.4807 39.312 47.4689 39.3104L47.4431 39.3068L47.437 39.306L47.4358 39.3059C47.4357 39.3059 47.4357 39.3059 47.444 39.2416L47.4358 39.3059L47.0734 39.2588L47.0081 38.8995C46.0954 33.8808 43.0353 29.1413 38.8225 24.8105C34.6134 20.4834 29.2871 16.5988 23.9079 13.2883C13.9489 7.15938 3.86522 3.03256 0.5 1.72707V63.4344C18.58 63.9954 35.1924 68.3691 47.388 73.2787C53.5399 75.7553 58.5799 78.373 62.124 80.7154C63.8946 81.8857 65.3049 82.9958 66.2954 83.9942C66.7907 84.4935 67.19 84.9738 67.4772 85.4283C67.7619 85.8788 67.9538 86.3313 67.9975 86.7703C68.1188 87.983 68.6731 90.7631 69.5783 94.7162C70.4805 98.6559 71.7238 103.729 73.2119 109.508C76.188 121.065 80.1415 135.433 84.2998 149.175C88.4594 162.922 92.8193 176.026 96.6078 185.064C98.5058 189.592 100.245 193.06 101.726 195.079C102.477 196.101 103.108 196.677 103.602 196.88C103.833 196.975 104.008 196.979 104.153 196.935C104.302 196.889 104.479 196.773 104.671 196.518C106.629 193.932 108.628 192.989 110.61 193.166C112.536 193.337 114.301 194.561 115.834 195.949C116.609 196.651 117.343 197.413 118.026 198.137C118.17 198.289 118.311 198.44 118.45 198.587C118.975 199.147 119.464 199.669 119.925 200.119C120.512 200.692 121.011 201.108 121.43 201.325C121.842 201.539 122.064 201.51 122.223 201.404C122.449 201.253 122.687 200.895 122.882 200.243C123.073 199.609 123.198 198.783 123.267 197.816C123.405 195.884 123.313 193.476 123.127 191.109C122.94 188.747 122.66 186.445 122.426 184.731C122.31 183.875 122.205 183.167 122.129 182.673C122.091 182.426 122.06 182.233 122.039 182.102L122.015 181.952L122.007 181.905L122.007 181.902C122.007 181.902 122.007 181.902 122.5 181.82Z" fill="#D9E2FC"/>
<path fill-rule="evenodd" clip-rule="evenodd" d="M96.9105 208.546L96.4658 208.341L96.1396 209.05H96.3056L88.6607 243.162L88.6558 243.175C88.643 243.208 88.6244 243.255 88.6007 243.318C88.5532 243.442 88.4853 243.623 88.4022 243.854C88.2362 244.316 88.0097 244.977 87.7664 245.775C87.2807 247.37 86.7247 249.527 86.4537 251.755C86.1839 253.973 86.1896 256.314 86.8712 258.25C87.5644 260.218 88.96 261.766 91.4016 262.308C93.845 262.851 96.6126 261.891 99.329 260.242C102.063 258.583 104.84 256.168 107.342 253.639C109.847 251.107 112.092 248.444 113.764 246.274C114.599 245.189 115.294 244.223 115.806 243.457C116.306 242.709 116.665 242.105 116.79 241.761C117.211 240.606 119.516 232.123 120.567 222.586C121.093 217.814 121.308 212.755 120.808 208.203C120.31 203.663 119.094 199.56 116.7 196.765C115.509 195.374 114.276 194.488 113.018 194.032C111.756 193.574 110.501 193.561 109.289 193.869C106.89 194.479 104.669 196.34 102.798 198.466C100.917 200.604 99.3346 203.074 98.2256 205.001C97.6701 205.966 97.2312 206.799 96.9308 207.391C96.7805 207.687 96.6649 207.924 96.5865 208.086C96.5473 208.168 96.5174 208.231 96.4972 208.274L96.4741 208.323L96.4681 208.336L96.4665 208.34L96.4658 208.341C96.4657 208.341 96.4658 208.341 96.9105 208.546ZM97.4152 208.672L89.6191 243.459L89.6041 243.496L89.6032 243.498L89.6 243.506L89.5868 243.54C89.5751 243.57 89.5575 243.615 89.5349 243.674C89.4896 243.793 89.4239 243.968 89.3433 244.192C89.1819 244.641 88.9607 245.286 88.723 246.067C88.2469 247.63 87.7079 249.726 87.4464 251.875C87.1837 254.035 87.208 256.196 87.8145 257.918C88.4095 259.608 89.5601 260.874 91.6185 261.332C93.6751 261.789 96.1574 260.998 98.8101 259.388C101.445 257.788 104.157 255.437 106.631 252.936C109.102 250.438 111.321 247.807 112.971 245.664C113.796 244.592 114.477 243.645 114.975 242.901C115.485 242.137 115.773 241.63 115.85 241.419C116.239 240.354 118.529 231.952 119.573 222.476C120.095 217.743 120.303 212.763 119.814 208.312C119.324 203.849 118.141 199.985 115.94 197.415C114.834 196.123 113.737 195.356 112.677 194.972C111.622 194.589 110.573 194.575 109.535 194.839C107.435 195.372 105.38 197.046 103.549 199.127C101.729 201.195 100.185 203.602 99.0923 205.5C98.547 206.447 98.1165 207.264 97.8226 207.844C97.6757 208.133 97.563 208.363 97.4874 208.52C97.4575 208.583 97.4333 208.633 97.4152 208.672Z" fill="#D9E2FC"/>
<path fill-rule="evenodd" clip-rule="evenodd" d="M74.3101 369.928L74 370.32C74.3101 369.928 74.3106 369.928 74.3113 369.929L74.3132 369.93L74.319 369.935L74.3389 369.951C74.3557 369.965 74.3798 369.985 74.4107 370.011C74.4725 370.064 74.562 370.142 74.6773 370.247C74.9078 370.457 75.2411 370.776 75.6617 371.219C76.5031 372.104 77.6936 373.484 79.1094 375.476C79.1461 375.527 79.1829 375.579 79.2199 375.632C81.555 377.93 84.4089 380.359 87.7031 382.89C93.8081 387.582 101.393 392.599 109.915 397.756C126.96 408.07 147.726 418.923 167.846 428.811C187.963 438.699 207.426 447.619 221.86 454.067C229.077 457.291 235.036 459.897 239.191 461.697C241.268 462.597 242.895 463.295 244.001 463.768C244.555 464.005 244.978 464.185 245.263 464.307L245.688 464.487L245.693 464.489C245.694 464.489 245.695 464.49 245.5 464.95L245.695 464.49L246 464.619V503.32H101.167L101.18 502.808C102.519 448.603 95.6036 415.545 88.3762 396.057C84.8316 386.499 81.2119 380.205 78.4539 376.281C76.4462 374.299 74.8049 372.4 73.586 370.601L71.7703 367.92L74.3101 369.928ZM81.4807 379.092C83.8733 383.029 86.6181 388.44 89.3138 395.709C96.5735 415.284 103.477 448.328 102.192 502.32H245V465.281L244.872 465.227C244.586 465.105 244.162 464.925 243.608 464.688C242.5 464.214 240.872 463.515 238.793 462.614C234.636 460.813 228.673 458.206 221.452 454.98C207.011 448.529 187.537 439.604 167.404 429.709C147.274 419.815 126.478 408.948 109.397 398.612C100.857 393.444 93.2388 388.405 87.0938 383.683C85.0573 382.118 83.1791 380.585 81.4807 379.092Z" fill="#D9E2FC"/>
<path fill-rule="evenodd" clip-rule="evenodd" d="M0.146484 747.646L245.646 502.146L246.354 502.854L0.853591 748.354L0.146484 747.646Z" fill="#F0F3FE"/>
</svg>
