<svg width="1913" height="521" viewBox="0 0 1913 521" fill="none" xmlns="http://www.w3.org/2000/svg">
<rect x="661" y="224" width="28" height="28" stroke="#D9E2FC"/>
<rect x="661" y="357" width="28" height="28" stroke="#D9E2FC"/>
<rect x="661" y="312" width="28" height="28" stroke="#D9E2FC"/>
<rect x="661" y="268" width="28" height="28" stroke="#D9E2FC"/>
<rect x="695" y="224" width="28" height="28" stroke="#D9E2FC"/>
<rect x="695" y="357" width="28" height="28" stroke="#D9E2FC"/>
<rect x="695" y="312" width="28" height="28" stroke="#D9E2FC"/>
<rect x="695" y="268" width="28" height="28" fill="#7EA0F6" fill-opacity="0.39" stroke="#D9E2FC"/>
<rect x="1656" y="379.5" width="28" height="28" stroke="#D9E2FC"/>
<rect x="1656" y="334.5" width="28" height="28" stroke="#D9E2FC"/>
<rect x="1656" y="290.5" width="28" height="28" fill="#7EA0F6" fill-opacity="0.39" stroke="#D9E2FC"/>
<rect x="848" y="243" width="28" height="28" stroke="#D9E2FC"/>
<rect x="848" y="376" width="28" height="28" stroke="#D9E2FC"/>
<rect x="848" y="331" width="28" height="28" stroke="#D9E2FC"/>
<rect x="848" y="287" width="28" height="28" stroke="#D9E2FC"/>
<rect x="904" y="287" width="28" height="28" stroke="#D9E2FC"/>
<rect x="904" y="420" width="28" height="28" stroke="#D9E2FC"/>
<rect x="756" y="419" width="28" height="28" fill="#7EA0F6" fill-opacity="0.39" stroke="#D9E2FC"/>
<rect x="1086" y="326" width="28" height="28" stroke="#D9E2FC"/>
<rect x="1086" y="364" width="28" height="28" stroke="#D9E2FC"/>
<rect x="904" y="375" width="28" height="28" stroke="#D9E2FC"/>
<rect x="987" y="391" width="28" height="28" stroke="#D9E2FC"/>
<rect x="987" y="346" width="28" height="28" stroke="#D9E2FC"/>
<rect x="946" y="391" width="28" height="28" fill="#7EA0F6" fill-opacity="0.39" stroke="#D9E2FC"/>
<rect x="946" y="346" width="28" height="28" stroke="#D9E2FC"/>
<rect x="904" y="331" width="28" height="28" fill="#7EA0F6" fill-opacity="0.39" stroke="#D9E2FC"/>
<rect x="987" y="165" width="28" height="28" stroke="#D9E2FC"/>
<rect x="987" y="298" width="28" height="28" stroke="#D9E2FC"/>
<rect x="987" y="253" width="28" height="28" stroke="#D9E2FC"/>
<rect x="987" y="209" width="28" height="28" fill="#7EA0F6" fill-opacity="0.39" stroke="#D9E2FC"/>
<rect x="1178" y="400" width="28" height="28" stroke="#D9E2FC"/>
<rect x="1178" y="219" width="28" height="28" fill="#7EA0F6" fill-opacity="0.39" stroke="#D9E2FC"/>
<rect x="1178" y="352" width="28" height="28" fill="#7EA0F6" fill-opacity="0.39" stroke="#D9E2FC"/>
<rect x="1178" y="307" width="28" height="28" stroke="#D9E2FC"/>
<rect x="1178" y="263" width="28" height="28" stroke="#D9E2FC"/>
<rect x="1220" y="400" width="28" height="28" stroke="#D9E2FC"/>
<rect x="1220" y="219" width="28" height="28" stroke="#D9E2FC"/>
<rect x="1220" y="352" width="28" height="28" stroke="#D9E2FC"/>
<rect x="1220" y="307" width="28" height="28" fill="#7EA0F6" fill-opacity="0.39" stroke="#D9E2FC"/>
<rect x="1220" y="263" width="28" height="28" stroke="#D9E2FC"/>
<rect x="1312" y="352" width="28" height="28" stroke="#D9E2FC"/>
<rect x="1349" y="264" width="28" height="28" stroke="#D9E2FC"/>
<rect x="1312" y="176" width="28" height="28" fill="#7EA0F6" fill-opacity="0.39" stroke="#D9E2FC"/>
<rect x="1312" y="309" width="28" height="28" fill="#7EA0F6" fill-opacity="0.39" stroke="#D9E2FC"/>
<rect x="1349" y="352" width="28" height="28" stroke="#D9E2FC"/>
<rect x="1349" y="309" width="28" height="28" stroke="#D9E2FC"/>
<rect x="1390" y="368" width="28" height="28" stroke="#D9E2FC"/>
<rect x="1390" y="368" width="28" height="28" stroke="#D9E2FC"/>
<rect x="1513" y="374.5" width="28" height="28" fill="#7EA0F6" fill-opacity="0.39" stroke="#D9E2FC"/>
<rect x="1312" y="264" width="28" height="28" fill="#7EA0F6" fill-opacity="0.39" stroke="#D9E2FC"/>
<rect x="1312" y="220" width="28" height="28" stroke="#D9E2FC"/>
<rect x="1577" y="379.5" width="28" height="28" stroke="#D9E2FC"/>
<rect x="1614" y="291.5" width="28" height="28" stroke="#D9E2FC"/>
<rect x="1614" y="247.5" width="28" height="28" stroke="#D9E2FC"/>
<rect x="1577" y="203.5" width="28" height="28" fill="#7EA0F6" fill-opacity="0.39" stroke="#D9E2FC"/>
<rect x="1577" y="336.5" width="28" height="28" fill="#7EA0F6" fill-opacity="0.39" stroke="#D9E2FC"/>
<rect x="1614" y="379.5" width="28" height="28" stroke="#D9E2FC"/>
<rect x="1614" y="336.5" width="28" height="28" stroke="#D9E2FC"/>
<rect x="1577" y="291.5" width="28" height="28" fill="#7EA0F6" fill-opacity="0.39" stroke="#D9E2FC"/>
<rect x="1577" y="247.5" width="28" height="28" stroke="#D9E2FC"/>
<rect x="1476" y="400.5" width="28" height="28" stroke="#D9E2FC"/>
<rect x="1476" y="224.5" width="28" height="28" fill="#7EA0F6" fill-opacity="0.39" stroke="#D9E2FC"/>
<rect x="1476" y="357.5" width="28" height="28" fill="#7EA0F6" fill-opacity="0.39" stroke="#D9E2FC"/>
<rect x="1476" y="312.5" width="28" height="28" fill="#7EA0F6" fill-opacity="0.39" stroke="#D9E2FC"/>
<rect x="1476" y="268.5" width="28" height="28" stroke="#D9E2FC"/>
<rect x="357" y="268" width="28" height="28" stroke="#D9E2FC"/>
<rect x="357" y="401" width="28" height="28" stroke="#D9E2FC"/>
<rect x="357" y="356" width="28" height="28" stroke="#D9E2FC"/>
<rect x="357" y="312" width="28" height="28" stroke="#D9E2FC"/>
<rect x="607" y="276" width="28" height="28" stroke="#D9E2FC"/>
<rect x="607" y="409" width="28" height="28" stroke="#D9E2FC"/>
<rect x="607" y="364" width="28" height="28" stroke="#D9E2FC"/>
<rect x="607" y="320" width="28" height="28" stroke="#D9E2FC"/>
<rect x="438" y="214" width="28" height="28" stroke="#D9E2FC"/>
<rect x="438" y="347" width="28" height="28" stroke="#D9E2FC"/>
<rect x="438" y="302" width="28" height="28" stroke="#D9E2FC"/>
<rect x="438" y="258" width="28" height="28" stroke="#D9E2FC"/>
<rect x="485" y="312" width="28" height="28" fill="#7EA0F6" fill-opacity="0.39" stroke="#D9E2FC"/>
<rect x="438" y="393" width="28" height="28" stroke="#D9E2FC"/>
<rect x="485" y="400" width="28" height="28" stroke="#D9E2FC"/>
<rect x="485" y="356" width="28" height="28" stroke="#D9E2FC"/>
<rect x="216.5" y="267.5" width="28" height="28" stroke="#D9E2FC"/>
<rect x="216.5" y="222.5" width="28" height="28" stroke="#D9E2FC"/>
<rect x="259.5" y="223.5" width="28" height="28" fill="#7EA0F6" fill-opacity="0.39" stroke="#D9E2FC"/>
<rect x="216.5" y="313.5" width="28" height="28" stroke="#D9E2FC"/>
<rect x="259.5" y="311.5" width="28" height="28" stroke="#D9E2FC"/>
<rect x="259.5" y="267.5" width="28" height="28" stroke="#D9E2FC"/>
<rect x="216.5" y="400.5" width="28" height="28" stroke="#D9E2FC"/>
<rect x="216.5" y="355.5" width="28" height="28" stroke="#D9E2FC"/>
<rect x="259.5" y="356.5" width="28" height="28" fill="#7EA0F6" fill-opacity="0.39" stroke="#D9E2FC"/>
<rect x="216.5" y="446.5" width="28" height="28" stroke="#D9E2FC"/>
<rect x="259.5" y="444.5" width="28" height="28" stroke="#D9E2FC"/>
<rect x="259.5" y="400.5" width="28" height="28" stroke="#D9E2FC"/>
<rect x="12.5" y="230.5" width="28" height="28" stroke="#D9E2FC"/>
<rect x="12.5" y="185.5" width="28" height="28" stroke="#D9E2FC"/>
<rect x="55.5" y="186.5" width="28" height="28" fill="#7EA0F6" fill-opacity="0.39" stroke="#D9E2FC"/>
<rect x="12.5" y="276.5" width="28" height="28" stroke="#D9E2FC"/>
<rect x="55.5" y="274.5" width="28" height="28" stroke="#D9E2FC"/>
<rect x="55.5" y="230.5" width="28" height="28" stroke="#D9E2FC"/>
<rect x="12.5" y="365.5" width="28" height="28" stroke="#D9E2FC"/>
<rect x="12.5" y="320.5" width="28" height="28" stroke="#D9E2FC"/>
<rect x="55.5" y="321.5" width="28" height="28" fill="#7EA0F6" fill-opacity="0.39" stroke="#D9E2FC"/>
<rect x="12.5" y="411.5" width="28" height="28" stroke="#D9E2FC"/>
<rect x="55.5" y="409.5" width="28" height="28" stroke="#D9E2FC"/>
<rect x="162.5" y="363.5" width="28" height="28" stroke="#D9E2FC"/>
<rect x="162.5" y="407.5" width="28" height="28" stroke="#D9E2FC"/>
<rect x="108.5" y="422.5" width="28" height="28" stroke="#D9E2FC"/>
<rect x="55.5" y="365.5" width="28" height="28" stroke="#D9E2FC"/>
<path d="M519 259H481.5V292.5L527 292V405.5H593V260.5H639.5V230.5H601V199.5H519V259Z" fill="black" fill-opacity="0.3"/>
<path d="M837.5 293.5H744V404H802V446H837.5V293.5Z" fill="black" fill-opacity="0.3"/>
<path d="M871.5 100V227.5H884V271L915.5 241L945.5 271V302.5H972V150.5H981V100H871.5Z" fill="black" fill-opacity="0.3"/>
<path d="M356 139.5V253.5H402V416.5H415L415.5 139.5H356Z" fill="black" fill-opacity="0.3"/>
<path d="M519 259H481.5V292.5L527 292V405.5H593V260.5H639.5V230.5H601V199.5H519V259Z" stroke="#D9E2FC" stroke-opacity="0.5"/>
<path d="M837.5 293.5H744V404H802V446H837.5V293.5Z" stroke="#D9E2FC" stroke-opacity="0.5"/>
<path d="M871.5 100V227.5H884V271L915.5 241L945.5 271V302.5H972V150.5H981V100H871.5Z" stroke="#D9E2FC" stroke-opacity="0.5"/>
<path d="M356 139.5V253.5H402V416.5H415L415.5 139.5H356Z" stroke="#D9E2FC" stroke-opacity="0.5"/>
<path d="M798.5 124.5L727.5 194L744 210V293H838V228H871V199L798.5 124.5Z" fill="black" fill-opacity="0.2" stroke="#D9E2FC" stroke-opacity="0.5"/>
<path d="M1054 188V1H1202V22H1342.5L1343.5 128L1308.5 162.5L1307.5 103.5H1202V201.5H1159L1102.5 312V188H1054Z" fill="black" fill-opacity="0.4"/>
<path d="M1202 103.5V201.5H1159L1102.5 312V188H1054V1H1202V22M1202 103.5V22M1202 103.5H1307.5L1308.5 162.5L1343.5 128L1342.5 22H1202" stroke="#D9E2FC" stroke-opacity="0.2"/>
<path d="M1032.5 188H1102.5V310.5L1160.5 201V416H1125V310.5H1102.5H1078.5V404H1032.5V188Z" fill="black" fill-opacity="0.3"/>
<path d="M1032.5 188H1102.5V310.5L1160.5 201V416H1125V310.5H1078.5V404H1032.5V188Z" stroke="#D9E2FC" stroke-opacity="0.5"/>
<path d="M1202 103.5L1201 202.5H1263.5V419.5H1302.5V169L1308 163.5V103.5H1202Z" fill="black" fill-opacity="0.3"/>
<path d="M1439 55H1343V125V127.5L1348 122.5V257H1382.5V314H1429V419.5H1466.5V213H1511V355H1548V419.5H1563.5V169H1439V55Z" fill="black" fill-opacity="0.3"/>
<path d="M1343 125V127.5M1343 127.5V55H1439V169H1563.5V419.5H1548V355H1511V213H1466.5V419.5H1429V314H1382.5V257H1348V122.5L1343 127.5ZM1201 202.5L1202 103.5H1308V163.5L1302.5 169V419.5H1263.5V202.5H1201Z" stroke="#D9E2FC" stroke-opacity="0.5"/>
<path d="M342 498.5V253H402V416.5H415.5V192H481.5V292.5H526V404H593.5V260.5H640V210L692 158L744 210V404H802V446H837.5V227.5H884.5V271.5L915 241L945.5 271.5V302.5H972V150H1032.5V404H1077.5V312.5H1124.5V414H1161V201.5H1263.5V419H1302.5V169L1348.5 123V256H1382.5V312.5H1428.5V419H1467V212H1511V355H1548V419H1564.5V180.5H1616V225H1659.5V267H1701V155H1716.5" stroke="#D9E2FC" stroke-opacity="0.5"/>
<path d="M1716 154.5L1794.5 220V279.5H1843.5V117.5H1912.5V522M340 502.5H303.5V201.5H206V353H147.5V413.5H93.5V169H0.5V522" stroke="#D9E2FC" stroke-opacity="0.5"/>
<rect x="1708.5" y="277.5" width="28" height="28" stroke="#D9E2FC"/>
<rect x="1708.5" y="232.5" width="28" height="28" stroke="#D9E2FC"/>
<rect x="1751.5" y="233.5" width="28" height="28" fill="#7EA0F6" fill-opacity="0.39" stroke="#D9E2FC"/>
<rect x="1708.5" y="323.5" width="28" height="28" stroke="#D9E2FC"/>
<rect x="1751.5" y="321.5" width="28" height="28" stroke="#D9E2FC"/>
<rect x="1751.5" y="277.5" width="28" height="28" stroke="#D9E2FC"/>
<rect x="1807.5" y="342.5" width="28" height="28" stroke="#D9E2FC"/>
<rect x="1807.5" y="297.5" width="28" height="28" stroke="#D9E2FC"/>
<rect x="1850.5" y="298.5" width="28" height="28" fill="#7EA0F6" fill-opacity="0.39" stroke="#D9E2FC"/>
<rect x="1807.5" y="388.5" width="28" height="28" stroke="#D9E2FC"/>
<rect x="1850.5" y="386.5" width="28" height="28" stroke="#D9E2FC"/>
<rect x="1850.5" y="342.5" width="28" height="28" stroke="#D9E2FC"/>
<rect x="1850.5" y="140.5" width="28" height="28" fill="#7EA0F6" fill-opacity="0.39" stroke="#D9E2FC"/>
<rect x="1850.5" y="228.5" width="28" height="28" stroke="#D9E2FC"/>
<rect x="1850.5" y="184.5" width="28" height="28" stroke="#D9E2FC"/>
</svg>
