<svg width="73" height="284" viewBox="0 0 73 284" fill="none" xmlns="http://www.w3.org/2000/svg">
<g clip-path="url(#clip0_539_82)">
<mask id="mask0_539_82" style="mask-type:luminance" maskUnits="userSpaceOnUse" x="0" y="117" width="30" height="30">
<path d="M30 117H0V147H30V117Z" fill="white"/>
</mask>
<g mask="url(#mask0_539_82)">
<path d="M14.0176 117.008C13.9531 117.014 13.7478 117.034 13.563 117.049C9.30205 117.433 5.31085 119.732 2.78299 123.266C1.37536 125.231 0.475074 127.46 0.134898 129.82C0.0146628 130.644 0 130.888 0 132.005C0 133.122 0.0146628 133.366 0.134898 134.19C0.950146 139.823 4.95895 144.556 10.3959 146.31C11.3695 146.624 12.3959 146.838 13.563 146.967C14.0176 147.017 15.9824 147.017 16.437 146.967C18.4516 146.744 20.1584 146.246 21.8416 145.386C22.0998 145.254 22.1495 145.219 22.1144 145.19C22.0909 145.172 20.9912 143.697 19.6715 141.914L17.2728 138.674L14.2669 134.225C12.6129 131.779 11.2522 129.779 11.2405 129.779C11.2287 129.776 11.217 131.753 11.2111 134.166C11.2024 138.392 11.1994 138.562 11.1466 138.662C11.0704 138.806 11.0117 138.864 10.8886 138.929C10.7947 138.976 10.7126 138.985 10.2698 138.985H9.76246L9.62756 138.9C9.53959 138.844 9.47507 138.77 9.43109 138.685L9.3695 138.553L9.37536 132.674L9.38416 126.791L9.47507 126.677C9.522 126.615 9.6217 126.536 9.69209 126.498C9.81231 126.439 9.85924 126.433 10.3666 126.433C10.9648 126.433 11.0645 126.457 11.2199 126.627C11.2639 126.674 12.8915 129.125 14.8388 132.078C16.7859 135.031 19.4486 139.064 20.7566 141.043L23.132 144.641L23.2523 144.562C24.3168 143.87 25.4429 142.885 26.3342 141.858C28.2316 139.68 29.4545 137.023 29.8651 134.19C29.9854 133.366 30 133.122 30 132.005C30 130.888 29.9854 130.644 29.8651 129.82C29.0499 124.187 25.041 119.454 19.6041 117.7C18.6451 117.389 17.6246 117.175 16.481 117.046C16.1994 117.017 14.261 116.985 14.0176 117.008ZM20.1584 126.081C20.2991 126.152 20.4135 126.287 20.4545 126.427C20.478 126.504 20.4839 128.134 20.478 131.809L20.4692 137.081L19.5396 135.656L18.607 134.231V130.398C18.607 127.92 18.6187 126.527 18.6364 126.46C18.6833 126.295 18.7859 126.166 18.9266 126.09C19.0469 126.029 19.0909 126.023 19.5514 126.023C19.9854 126.023 20.0616 126.029 20.1584 126.081Z" fill="#D9E2FC"/>
</g>
</g>
<g clip-path="url(#clip1_539_82)">
<path fill-rule="evenodd" clip-rule="evenodd" d="M28.0591 254.029C28.0257 254.034 28.0281 254.074 28.0306 254.115C28.0306 264.056 28.0306 273.996 28.0306 283.937C37.9542 284.004 47.9998 283.947 57.9707 283.966C57.9707 273.987 57.9707 264.008 57.9707 254.029C48.0005 254.029 38.0293 254.029 28.0591 254.029ZM43.2281 280.494C42.5354 281.193 41.4423 281.604 40.0975 281.604C37.8919 281.604 36.6673 280.529 35.8856 279.043C36.638 278.562 37.407 278.098 38.1909 277.648C38.5106 278.543 39.5905 279.548 40.809 278.929C41.5815 278.537 41.4923 277.346 41.4923 276.055C41.4923 273.373 41.4923 270.279 41.4923 267.859C41.4898 267.819 41.4874 267.779 41.5205 267.774C42.4409 267.774 43.3611 267.774 44.2812 267.774C44.2812 269.929 44.2812 272.368 44.2812 274.66C44.2812 277.156 44.4596 279.253 43.2281 280.494ZM55.5799 278.019C55.4232 280.356 53.5148 281.596 50.941 281.604C48.4178 281.611 46.8029 280.49 45.818 278.758C46.5261 278.271 47.3284 277.878 48.0665 277.421C48.6571 278.344 49.68 279.232 51.1971 279.1C52.1423 279.017 53.2395 278.247 52.6201 277.079C52.3197 276.513 51.5937 276.226 50.941 275.941C48.8696 275.037 46.4394 274.208 46.6718 270.961C46.7496 269.876 47.2491 269.114 47.8958 268.571C48.5585 268.014 49.4462 267.641 50.6279 267.603C52.7742 267.535 53.9515 268.489 54.7546 269.823C54.0712 270.344 53.3183 270.796 52.5632 271.246C52.3154 270.484 51.1192 269.742 50.1156 270.193C49.6592 270.398 49.2491 270.999 49.4896 271.729C49.704 272.381 50.5788 272.737 51.2825 273.039C53.4125 273.95 55.7929 274.841 55.5799 278.019Z" fill="#D9E2FC"/>
</g>
<path d="M23.9725 15.5278C23.9725 15.4387 23.9256 15.3562 23.8488 15.3122L21.7938 14.13C21.7591 14.1094 21.7197 14.099 21.6803 14.0972C21.6766 14.0972 21.6616 14.0972 21.6588 14.0972C21.6194 14.099 21.581 14.1094 21.5453 14.13L19.4913 15.3122C19.4144 15.3562 19.3666 15.4387 19.3666 15.5278L19.3713 18.7115C19.3713 18.7556 19.3947 18.7969 19.4331 18.8184C19.4716 18.8409 19.5185 18.8409 19.5569 18.8184L20.7775 18.119C20.8544 18.0731 20.9013 17.9925 20.9013 17.9034V16.4156C20.9013 16.3275 20.9481 16.245 21.025 16.2009L21.5453 15.9019C21.5838 15.8794 21.626 15.8691 21.67 15.8691C21.7122 15.8691 21.7553 15.8803 21.7938 15.9019L22.3131 16.2009C22.39 16.245 22.4369 16.3275 22.4369 16.4156V17.9034C22.4369 17.9925 22.4847 18.0731 22.5616 18.119L23.7822 18.8184C23.8206 18.8409 23.8685 18.8409 23.906 18.8184C23.9435 18.7969 23.9678 18.7556 23.9678 18.7115L23.9725 15.5278ZM34.9431 11.1506C34.9047 11.1291 34.8578 11.13 34.8203 11.1525C34.7828 11.175 34.7594 11.2153 34.7594 11.2594V14.4122C34.7594 14.4431 34.7425 14.4722 34.7163 14.4872C34.69 14.5022 34.6563 14.5031 34.6291 14.4872L34.1144 14.1909C34.0375 14.1469 33.9428 14.1469 33.866 14.1909L31.811 15.3769C31.7341 15.4209 31.6863 15.5034 31.6863 15.5916V17.9644C31.6863 18.0534 31.7331 18.135 31.81 18.1791L33.865 19.3659C33.9419 19.41 34.0366 19.41 34.1135 19.3659L36.1694 18.1791C36.2463 18.1341 36.2931 18.0525 36.2931 17.9644V12.0497C36.2931 11.9597 36.2444 11.8772 36.1656 11.8331L34.9422 11.1506H34.9431ZM34.7528 17.1853C34.7528 17.2078 34.7416 17.2284 34.7219 17.2387L34.016 17.6456C33.9972 17.6569 33.9728 17.6569 33.9541 17.6456L33.2481 17.2387C33.2285 17.2275 33.2172 17.2069 33.2172 17.1853V16.3706C33.2172 16.3481 33.2294 16.3275 33.2481 16.3172L33.9541 15.9094C33.9728 15.8981 33.9972 15.8981 34.016 15.9094L34.7219 16.3172C34.7406 16.3284 34.7528 16.3491 34.7528 16.3706V17.1853ZM42.2969 16.349C42.3728 16.305 42.4206 16.2234 42.4206 16.1344V15.5597C42.4206 15.4706 42.3738 15.39 42.2969 15.345L40.255 14.159C40.1781 14.114 40.0835 14.114 40.0066 14.159L37.9516 15.345C37.8747 15.3891 37.8278 15.4715 37.8278 15.5597V17.9316C37.8278 18.0206 37.8756 18.1031 37.9535 18.1472L39.9953 19.3106C40.0703 19.3537 40.1631 19.3537 40.2391 19.3116L41.4738 18.6253C41.5122 18.6037 41.5366 18.5625 41.5375 18.5175C41.5385 18.4725 41.5141 18.4312 41.4756 18.4087L39.4075 17.2219C39.3691 17.2003 39.3456 17.159 39.3456 17.114V16.3706C39.3456 16.3266 39.3691 16.2853 39.4075 16.2628L40.0516 15.8925C40.09 15.8709 40.1369 15.8709 40.1753 15.8925L40.8194 16.2628C40.8578 16.2853 40.8813 16.3256 40.8813 16.3706V16.9556C40.8813 16.9997 40.9047 17.0409 40.9431 17.0634C40.9816 17.0859 41.0294 17.085 41.0678 17.0634L42.2978 16.3481L42.2969 16.349ZM27.7103 14.1469C27.7872 14.1028 27.8819 14.1028 27.9588 14.1469L30.0138 15.3328C30.0906 15.3769 30.1375 15.4584 30.1375 15.5475V17.9212C30.1375 18.0103 30.0897 18.0919 30.0138 18.1359L27.9588 19.3228C27.8819 19.3669 27.7872 19.3669 27.7103 19.3228L25.6553 18.1359C25.5785 18.0919 25.5316 18.0094 25.5316 17.9212V15.5475C25.5316 15.4584 25.5785 15.3769 25.6553 15.3328L27.7103 14.1469ZM46.2869 19.3565C46.2166 19.3565 46.1453 19.3378 46.0835 19.3022L45.4366 18.9197C45.34 18.8653 45.3878 18.8465 45.4188 18.8353C45.5472 18.7903 45.5735 18.78 45.7113 18.7022C45.7253 18.6937 45.745 18.6975 45.76 18.7059L46.2569 19.0012C46.2747 19.0115 46.3 19.0115 46.3169 19.0012L48.2547 17.8828C48.2725 17.8725 48.2838 17.8519 48.2838 17.8303V15.5934C48.2838 15.5719 48.2725 15.5512 48.2538 15.54L46.3169 14.4225C46.2991 14.4122 46.2747 14.4122 46.2569 14.4225L44.32 15.54C44.3013 15.5503 44.2891 15.5719 44.2891 15.5934V17.8303C44.2891 17.8519 44.3013 17.8715 44.3191 17.8819L44.8497 18.1884C45.1375 18.3328 45.3138 18.1631 45.3138 17.9925V15.7847C45.3138 15.7537 45.3391 15.7294 45.37 15.7294H45.6156C45.6466 15.7294 45.6719 15.7537 45.6719 15.7847V17.9925C45.6719 18.3769 45.4628 18.5972 45.0981 18.5972C44.9866 18.5972 44.8975 18.5972 44.6519 18.4762L44.1438 18.1837C44.0181 18.1115 43.9403 17.9756 43.9403 17.8303V15.5934C43.9403 15.4481 44.0181 15.3122 44.1438 15.24L46.0816 14.1206C46.2044 14.0512 46.3675 14.0512 46.4885 14.1206L48.4263 15.24C48.5519 15.3122 48.6297 15.4481 48.6297 15.5934V17.8303C48.6297 17.9756 48.5519 18.1106 48.4263 18.1837L46.4885 19.3022C46.4266 19.3378 46.3563 19.3565 46.2841 19.3565H46.2869ZM46.886 17.8162C46.0375 17.8162 45.8603 17.4272 45.8603 17.1C45.8603 17.069 45.8847 17.0447 45.9166 17.0447H46.1669C46.195 17.0447 46.2185 17.0653 46.2222 17.0925C46.2597 17.3475 46.3722 17.4769 46.886 17.4769C47.2938 17.4769 47.4681 17.384 47.4681 17.1684C47.4681 17.0437 47.4194 16.9509 46.7847 16.889C46.255 16.8365 45.9269 16.7194 45.9269 16.2956C45.9269 15.9047 46.2569 15.6712 46.8091 15.6712C47.4297 15.6712 47.7372 15.8869 47.7756 16.349C47.7775 16.365 47.7719 16.38 47.7606 16.3922C47.7494 16.4044 47.7353 16.41 47.7194 16.41H47.4681C47.4419 16.41 47.4194 16.3912 47.4138 16.3659C47.3538 16.0978 47.2066 16.0116 46.8091 16.0116C46.3638 16.0116 46.3113 16.1672 46.3113 16.2834C46.3113 16.425 46.3722 16.4653 46.9741 16.545C47.5694 16.6237 47.8525 16.7353 47.8525 17.1534C47.8525 17.5753 47.501 17.8172 46.8869 17.8172L46.886 17.8162ZM40.0994 16.2384C40.1144 16.23 40.1322 16.23 40.1472 16.2384L40.5419 16.4662C40.5569 16.4747 40.5663 16.4906 40.5663 16.5075V16.9631C40.5663 16.98 40.5569 16.9959 40.5419 17.0044L40.1472 17.2322C40.1322 17.2406 40.1144 17.2406 40.0994 17.2322L39.7056 17.0044C39.6906 16.9959 39.6822 16.98 39.6822 16.9631V16.5075C39.6822 16.4906 39.6916 16.4747 39.7056 16.4662L40.0994 16.2384Z" fill="#D9E2FC"/>
<path d="M66.135 80.7938C66.135 80.7938 66.135 71.0803 66.4575 71.0812C66.7069 71.0812 67.0312 83.6109 67.0312 83.6109C66.585 83.5584 66.135 81.5494 66.135 80.7938ZM72.3862 71.1937C71.5247 67.4288 69.6375 64.1916 67.035 61.6931L67.0284 61.6875C66.7116 61.2038 66.4219 60.6487 66.1894 60.0637L66.1669 60C66.1678 60.0187 66.1678 60.0412 66.1678 60.0637C66.1678 60.5934 65.9306 61.0669 65.5566 61.3847L65.5538 61.3866C62.2031 64.2309 60.0712 68.4225 60.0009 73.1128V73.125C60 73.1831 60 73.2516 60 73.32C60 77.9672 62.2359 82.0922 65.6906 84.6778L65.7272 84.7041L65.8087 84.7631C65.9594 85.8781 66.0881 86.9956 66.195 88.1156H66.7584C66.9141 86.7178 67.1241 85.4944 67.3988 84.2944L67.3556 84.5184C67.7269 84.2606 68.0512 83.9934 68.3541 83.7038L68.3512 83.7066C70.9772 81.2719 72.6159 77.8031 72.6159 73.9528C72.6159 73.8956 72.6159 73.8394 72.615 73.7822V73.7906C72.6122 72.8709 72.5287 71.9719 72.3703 71.0991L72.3844 71.1919L72.3862 71.1937Z" fill="#D9E2FC"/>
<defs>
<clipPath id="clip0_539_82">
<rect width="30" height="30" fill="white" transform="translate(0 117)"/>
</clipPath>
<clipPath id="clip1_539_82">
<rect width="30" height="30" fill="white" transform="translate(28 254)"/>
</clipPath>
</defs>
</svg>
