<svg width="102" height="394" viewBox="0 0 102 394" fill="none" xmlns="http://www.w3.org/2000/svg">
<g clip-path="url(#clip0_550_83)">
<path d="M61.9371 105.304C59.7499 105.304 57.9153 106.829 57.4296 108.87C57.0188 108.71 56.5252 108.617 55.9739 108.617C55.4227 108.617 54.9291 108.71 54.5183 108.87C54.032 106.829 52.198 105.304 50.0108 105.304C47.454 105.304 45.3728 107.386 45.3728 109.942C45.3728 112.499 47.454 114.58 50.0108 114.58C52.4186 114.58 54.4023 112.735 54.6263 110.385C54.6283 110.365 54.6375 110.349 54.6375 110.329C54.7012 110.215 55.1762 109.942 55.9739 109.942C56.7717 109.942 57.2467 110.215 57.2991 110.274C57.2991 110.313 57.315 110.347 57.3216 110.384C57.5456 112.734 59.5293 114.58 61.9371 114.58C64.4939 114.58 66.5751 112.499 66.5751 109.942C66.5751 107.386 64.4939 105.304 61.9371 105.304ZM50.0108 113.255C48.1841 113.255 46.698 111.769 46.698 109.942C46.698 108.116 48.1841 106.63 50.0108 106.63C51.8375 106.63 53.3237 108.116 53.3237 109.942C53.3237 111.769 51.8375 113.255 50.0108 113.255ZM61.9371 113.255C60.1104 113.255 58.6242 111.769 58.6242 109.942C58.6242 108.116 60.1104 106.63 61.9371 106.63C63.7638 106.63 65.2499 108.116 65.2499 109.942C65.2499 111.769 63.7638 113.255 61.9371 113.255Z" fill="#D9E2FC"/>
<path d="M73.049 98.5887C72.676 95.8847 71.5105 93.5505 69.8521 92.1829C69.4254 91.8311 69.1127 91.2785 68.9232 90.5404C68.3753 88.4142 66.3743 86.9288 63.8254 86.7545C62.4055 86.6578 61.1771 87.0977 59.8314 87.6364C59.785 87.6556 59.7294 87.6549 59.6479 87.6033C59.3723 86.8705 58.7468 86.3662 57.8868 86.1834C55.8878 85.7613 52.8274 87.052 50.3646 89.2922C50.3686 88.7018 50.4912 88.1744 50.8251 88.0081L51.9422 87.4502L50.8529 86.838C49.7021 86.19 46.9266 85.4877 44.6685 87.4635C43.8483 88.1804 43.252 89.1835 42.9465 90.3635C42.8836 90.6047 42.82 90.8638 42.763 91.1182C42.7385 91.2288 42.6477 91.262 42.6099 91.2706C42.5377 91.2878 42.4794 91.2693 42.4125 91.1904C42.0593 90.7578 41.5213 90.5471 40.9747 90.6226C40.4473 90.6961 40.006 91.0334 39.7947 91.5243C38.4907 94.5503 36.0511 102.251 41.2523 108.843V119.88C41.2523 121.707 42.7385 123.193 44.5652 123.193H46.5529V124.316C46.5529 125.158 47.238 125.843 48.0801 125.843H63.5776C64.4197 125.843 65.1055 125.158 65.1055 124.316V123.193H67.0932C68.9199 123.193 70.406 121.707 70.406 119.88V108.879C71.1819 108.005 73.8666 104.499 73.049 98.5887ZM41.0111 92.0491C41.0224 92.0239 41.0542 91.9491 41.1596 91.9351C41.1993 91.9292 41.302 91.9272 41.3769 92.0173L41.4193 92.069C41.7863 92.5063 42.3621 92.6931 42.9227 92.5593C43.4931 92.4208 43.9284 91.9802 44.0563 91.4097C44.1106 91.1699 44.1709 90.9254 44.2299 90.6968C44.4684 89.7758 44.9223 89.0026 45.5411 88.462C46.9312 87.2461 48.467 87.4038 49.3847 87.6702C49.0534 88.2983 48.9553 89.1802 49.1071 90.2608C49.1561 90.618 49.3993 90.9101 49.7418 91.0234C50.0864 91.1387 50.464 91.048 50.7218 90.7869C53.2435 88.2261 56.1562 87.1713 57.6112 87.4807C58.2346 87.6125 58.3652 87.9577 58.4076 88.071C58.5381 88.4182 58.8025 88.6945 59.151 88.8482C59.5187 89.0106 59.9467 89.0178 60.3237 88.8674C61.5587 88.3725 62.5957 87.9975 63.7346 88.0777C65.3023 88.1843 67.1508 88.9741 67.6398 90.8711C67.9015 91.8868 68.362 92.6726 69.0093 93.2059C69.6739 93.7539 71.27 95.3931 71.7371 98.7702C72.246 102.451 71.274 105.076 70.4054 106.596V98.6788V97.5213L69.4069 98.1076C67.7783 99.0651 66.3564 99.3579 65.1757 98.9783C64.9915 98.9193 64.8212 98.8457 64.6629 98.7616C63.5551 98.1759 63.0668 97.0999 63.0615 97.0873L63.0608 97.0866L62.917 96.754L62.5553 96.6984C56.1959 95.7178 53.105 98.3786 52.239 99.3089C47.6242 98.8086 45.6226 97.4822 45.6047 97.4709L45.1144 97.131L44.7255 97.5835C44.4671 97.8837 44.1988 98.1467 43.9298 98.3773C43.1208 99.0697 42.2985 99.4699 41.6856 99.6958L41.2523 99.8568V100.319V106.526C38.0044 101.1 39.6376 95.2374 41.0111 92.0491ZM63.7797 124.317C63.7797 124.429 63.6889 124.52 63.5769 124.52H48.0794C47.9681 124.52 47.8773 124.429 47.8773 124.317V123.195H63.779L63.7797 124.317ZM69.0802 119.881C69.0802 120.977 68.1884 121.869 67.0925 121.869H65.1048H46.5529H44.5652C43.4693 121.869 42.5775 120.977 42.5775 119.881V110.48V100.767C43.3924 100.414 44.4108 99.8244 45.3576 98.855C46.2898 99.3387 48.5426 100.285 52.4517 100.663L52.8261 100.7L53.0494 100.397C53.0745 100.362 55.5704 97.0879 62.0245 97.9612C62.3664 98.5509 63.2152 99.7316 64.749 100.233C66.0424 100.656 67.4954 100.5 69.0796 99.7733V110.188L69.0802 119.881Z" fill="#D9E2FC"/>
<path d="M57.9617 102.654H59.9494L58.7567 104.244C58.5368 104.537 58.5964 104.952 58.8893 105.171C59.0085 105.261 59.1477 105.304 59.2861 105.304C59.4882 105.304 59.6863 105.212 59.8168 105.039L61.8046 102.389C61.9556 102.188 61.9795 101.919 61.8675 101.695C61.7549 101.47 61.5256 101.328 61.2745 101.328H59.2868L60.4794 99.7382C60.6994 99.4461 60.6398 99.0306 60.3469 98.8113C60.0547 98.592 59.6393 98.651 59.42 98.9438L57.4323 101.594C57.2812 101.795 57.2573 102.063 57.3693 102.288C57.4813 102.512 57.7105 102.654 57.9617 102.654Z" fill="#D9E2FC"/>
<path d="M60.6119 117.231H51.336C50.9696 117.231 50.6734 117.527 50.6734 117.893C50.6734 118.26 50.9696 118.556 51.336 118.556H60.6119C60.9783 118.556 61.2745 118.26 61.2745 117.893C61.2745 117.527 60.9783 117.231 60.6119 117.231Z" fill="#D9E2FC"/>
</g>
<path d="M23.72 220.045H23.5958C21.112 220.045 18.6283 220.045 16.1445 220.045C15.8961 220.045 15.6477 219.925 15.5235 219.685C12.9156 216.564 10.3076 213.322 7.69968 210.201C7.57549 210.081 7.4513 209.961 7.4513 209.721C7.4513 206.6 7.4513 203.598 7.4513 200.477C7.4513 200.477 7.4513 200.477 7.57549 200.357H7.69968C13.0398 206.84 18.3799 213.322 23.8442 219.805V219.925L23.72 220.045Z" fill="#D9E2FC"/>
<path d="M32.0406 210.321C31.2955 211.282 30.5503 212.122 29.8052 213.082C29.681 213.322 29.4326 213.442 29.1843 213.442C26.7005 213.442 24.2167 213.442 21.733 213.442H21.6088C21.4846 213.442 21.3604 213.322 21.4846 213.202C21.4846 213.202 21.4846 213.082 21.6088 213.082C24.0925 210.081 26.5763 207.08 28.9359 204.199C29.9294 202.998 30.9229 201.798 32.0406 200.477L32.1648 200.357H32.289C32.289 200.477 32.289 200.477 32.289 200.597C32.289 203.598 32.289 206.72 32.289 209.721C32.289 209.961 32.1648 210.201 32.0406 210.321Z" fill="#D9E2FC"/>
<path d="M89.3048 253.543C89.2207 253.541 89.1368 253.553 89.0534 253.579C88.718 253.68 88.4883 253.988 88.4883 254.338C88.4883 255.723 86.4446 257.92 85.0219 259.11C80.2555 259.219 77.7247 262.03 76.9435 263.081H75.7714C75.6149 263.081 75.4609 263.127 75.3306 263.214L73.1464 264.67H71.0026C70.7578 264.67 70.5272 264.783 70.377 264.976C70.2268 265.168 70.1715 265.421 70.2311 265.657L71.0259 268.837C71.0815 269.062 71.2353 269.251 71.4419 269.355L72.1265 269.697C72.5493 269.995 73.4204 270.51 74.9766 271.029C74.9766 271.029 74.6266 270.323 74.3914 269.616C75.3889 268.818 77.9285 267.216 80.5403 269.042V269.607C80.5403 270.294 80.1837 271 79.5359 271.594C78.6846 272.373 77.47 272.816 76.4653 272.733C76.1895 272.709 76.0229 272.659 76.0229 272.659V272.66C75.6732 272.543 75.2877 272.681 75.0946 272.995C74.9007 273.309 74.948 273.714 75.2095 273.975L76.8891 275.655C77.3247 276.09 77.9149 276.333 78.5253 276.333C78.5746 276.333 78.6219 276.332 78.6712 276.328C79.3571 276.285 79.9978 275.942 80.4254 275.388C80.9706 274.682 82.6626 273.609 85.632 272.778C85.6399 272.869 85.6514 272.959 85.6522 273.051C85.672 275.421 83.2272 277.558 83.2025 277.58C82.8989 277.841 82.838 278.289 83.0597 278.623C83.2823 278.956 83.7173 279.072 84.075 278.893L86.1613 277.85C86.1065 278.17 85.9827 278.448 85.7888 278.686C85.5177 279.018 85.1248 279.253 84.7099 279.418C84.1464 279.577 83.5237 279.701 82.8377 279.778C82.4189 279.825 82.1099 280.19 82.133 280.611C82.1552 281.031 82.5026 281.361 82.9247 281.361C82.9724 281.361 83.4902 281.354 84.1666 281.22C83.2986 282.711 82.4269 284.763 82.9666 286.381C83.058 286.657 83.2936 286.861 83.5798 286.912C83.6267 286.921 83.6726 286.925 83.7195 286.925C83.9587 286.925 84.1871 286.817 84.3389 286.627C84.3651 286.594 86.6139 283.824 89.5905 282.088C89.4609 282.403 89.3709 282.587 89.3669 282.597C89.1992 282.934 89.2894 283.341 89.5843 283.573C89.7297 283.688 89.9046 283.745 90.0795 283.745C90.2599 283.745 90.4393 283.685 90.5871 283.562C98.2323 277.19 96.1593 270.223 94.7319 267.258C95.7564 267.975 96.4835 269.712 96.4938 269.735C96.6361 270.088 97.001 270.287 97.3833 270.218C97.7561 270.146 98.026 269.82 98.026 269.439C98.026 263.053 93.24 260.166 91.6536 259.384C91.5002 256.267 90.0112 253.997 89.9444 253.897C89.799 253.679 89.5571 253.55 89.3048 253.543ZM80.5403 255.927C72.6518 255.927 66.2338 262.345 66.2338 270.234C66.2338 278.122 72.6518 284.54 80.5403 284.54C80.9798 284.54 81.3351 284.185 81.3351 283.745C81.3351 283.306 80.9798 282.951 80.5403 282.951C73.5285 282.951 67.8234 277.246 67.8234 270.234C67.8234 263.222 73.5285 257.517 80.5403 257.517C81.8151 257.517 83.0726 257.705 84.2799 258.076C84.7067 258.209 85.1454 257.968 85.2734 257.55C85.4021 257.13 85.1676 256.685 84.7487 256.556C83.3888 256.14 81.9733 255.927 80.5403 255.927ZM88.3346 258.031C88.1153 260.054 87.7394 261.224 87.7339 261.241C87.5964 261.657 87.8219 262.106 88.2384 262.244C88.3218 262.272 88.4064 262.286 88.4899 262.286C88.8221 262.286 89.1315 262.075 89.2412 261.742C89.2658 261.669 89.6765 260.406 89.9134 258.228C90.0103 258.751 90.0779 259.309 90.0779 259.901C90.0779 260.231 90.2842 260.527 90.5918 260.645C90.7841 260.718 94.4752 262.172 95.8899 266.148C95.0872 265.491 94.112 265.139 93.0057 265.507C92.7656 265.587 92.579 265.775 92.5011 266.016C92.4233 266.257 92.4658 266.521 92.6145 266.727C92.8299 267.025 97.2922 273.397 91.905 280.006C92.2905 278.234 92.4438 275.994 91.6116 273.914C91.4773 273.58 91.1317 273.377 90.778 273.419C90.4212 273.462 90.1366 273.739 90.0857 274.096C90.0809 274.129 89.7551 276.203 87.7649 277.856C87.8086 277.416 87.7789 276.943 87.678 276.439C87.6295 276.195 87.4705 275.989 87.248 275.88C87.0254 275.771 86.765 275.772 86.5432 275.883L86.492 275.909C86.9267 275.067 87.2474 274.09 87.2402 273.047C87.2291 271.466 86.4835 270.047 85.0235 268.829C84.6849 268.548 84.1856 268.594 83.9042 268.931C83.6228 269.269 83.6681 269.77 84.0051 270.051C84.478 270.444 84.841 270.851 85.1088 271.274C82.2817 272.077 80.0876 273.226 79.168 274.417C79.0186 274.61 78.8024 274.729 78.5719 274.743C78.3676 274.755 78.164 274.682 78.0146 274.532L77.7165 274.234C78.7601 274.029 79.7954 273.514 80.6117 272.766C81.5901 271.867 82.1299 270.745 82.1299 269.607V268.644C82.1299 268.403 82.0202 268.174 81.8318 268.023C78.5421 265.391 75.0139 267.005 73.2582 268.486L72.4789 268.098L72.0209 266.26H73.387C73.5436 266.26 73.6975 266.213 73.8279 266.126L76.012 264.67H77.361C77.6408 264.67 77.8995 264.524 78.0425 264.285C78.0648 264.249 80.2541 260.696 85.3091 260.696C85.4903 260.696 85.6644 260.635 85.8058 260.522C86.0411 260.334 87.2593 259.331 88.3346 258.031ZM81.3351 263.129L79.865 263.764L79.0593 264.686L80.3152 264.667L81.3351 263.129ZM90.6181 276.934C90.6547 278.011 90.4944 279.062 90.2766 279.962C87.9558 280.965 85.9403 282.67 84.6416 283.954C85.0612 282.699 85.9197 281.308 86.6255 280.397C88.6483 279.485 89.8853 278.136 90.6181 276.934Z" fill="#D9E2FC"/>
<path d="M39.2843 380.074H44.8363C43.5845 379.531 43.754 378.437 43.7555 377.401C43.7598 372.621 43.7569 367.842 43.7584 363.06C43.7584 361.961 43.9887 361.761 45.0957 361.646C47.6268 361.385 49.648 363.918 49.7856 365.705C49.8842 366.981 49.7509 368.211 48.967 369.296C48.4078 370.068 47.7007 370.652 46.7619 370.832C46.107 370.957 46.0679 371.273 46.2272 371.796C46.6778 373.281 47.4689 374.569 48.5063 375.705C50.5246 377.914 52.8587 379.735 55.4391 381.242C56.5055 381.865 57.5617 382.491 58.3875 383.436C60.0291 385.313 59.5727 387.981 57.3588 389.144C55.2696 390.242 53.176 390.163 51.1621 388.914C49.9247 388.145 49.4654 387.061 49.7523 385.703C49.8842 385.074 50.1421 384.601 50.9042 384.517C51.5069 384.45 52.0676 384.182 52.4008 383.61C52.9137 382.732 52.5153 381.942 51.5098 381.846C49.9523 381.697 48.515 382.687 47.9137 384.32C47.0936 386.546 47.8166 389.014 49.7654 390.721C49.9638 390.894 50.4101 391.003 50.2696 391.318C50.1551 391.574 49.7407 391.429 49.4625 391.423C41.6749 391.274 34.8247 385.212 33.612 377.481C32.7079 371.722 34.2813 366.798 38.3845 362.672C38.6048 362.45 38.8337 362.229 39.0843 362.043C39.3292 361.862 39.5523 361.461 39.845 361.574C40.2144 361.717 40.129 362.195 40.1884 362.54C40.2289 362.775 40.2058 363.021 40.2058 363.263C40.2058 368.02 40.1956 372.775 40.2144 377.532C40.2188 378.492 40.1058 379.366 39.2828 380.076L39.2843 380.074ZM45.4057 374.441C45.4057 375.497 45.4289 376.554 45.397 377.608C45.3796 378.166 45.5926 378.492 46.0838 378.749C47.7355 379.614 47.3863 379.324 46.8865 380.899C46.6923 381.512 46.3707 381.77 45.6883 381.761C42.9369 381.725 40.184 381.751 37.4326 381.748C37.0327 381.748 36.7212 381.754 37.0356 382.285C39.1278 385.815 42.1516 388.133 46.0867 389.275C46.5315 389.404 46.6025 389.253 46.4446 388.849C46.0548 387.846 45.9099 386.801 45.9577 385.726C46.078 383.029 47.8326 380.805 50.3014 380.229C50.442 380.196 50.6535 380.287 50.7288 379.993C48.7367 378.408 46.8517 376.688 45.4072 374.443L45.4057 374.441ZM38.4642 365.095C38.399 365.129 38.3237 365.145 38.2846 365.193C34.6407 369.667 34.2553 375.263 35.9954 380.079C36.1475 380.502 36.3213 380.386 36.5517 380.154C37.011 379.693 37.4384 379.185 37.9586 378.805C38.4019 378.481 38.5656 378.139 38.5627 377.601C38.5454 373.644 38.554 369.687 38.5497 365.732C38.5497 365.526 38.6207 365.303 38.4642 365.095ZM54.3148 382.543C54.2626 384.195 53.5165 385.279 52.0922 385.897C51.8025 386.023 51.3939 386.015 51.3634 386.478C51.333 386.951 51.6054 387.245 51.9633 387.478C53.4484 388.443 55.0001 388.511 56.5591 387.717C57.7225 387.125 58.2006 385.515 57.0763 384.435C56.2823 383.675 55.4072 383.071 54.3148 382.543ZM45.4101 366.393C45.4101 366.393 45.4072 366.393 45.4057 366.393C45.4057 367.139 45.4028 367.885 45.4057 368.63C45.4101 369.421 45.4825 369.476 46.2243 369.292C47.5442 368.964 48.2049 367.849 48.1368 366.065C48.0919 364.899 46.9908 363.515 45.9853 363.349C45.5651 363.279 45.4086 363.478 45.4086 363.864C45.4086 364.706 45.4086 365.549 45.4086 366.391L45.4101 366.393Z" fill="#D9E2FC"/>
<path d="M60.7477 375.084C60.7477 373.763 60.7477 372.472 60.7477 371.18C60.7477 370.797 60.5087 370.69 60.1754 370.692C58.3165 370.7 56.4548 370.647 54.6002 370.735C53.4237 370.791 52.4458 371.432 51.6822 372.317C51.3171 372.74 51.1664 372.827 50.8404 372.268C50.4579 371.61 50.5202 371.259 51.1287 370.723C53.1861 368.909 53.7106 366.543 53.1354 363.941C52.8587 362.692 51.914 361.885 50.8085 361.306C49.4785 360.609 48.0398 360.319 46.5518 360.292C45.0363 360.265 43.5193 360.286 41.9357 360.286C43.1064 358.896 48.3629 357.288 52.6457 358.073C59.6104 359.351 64.2439 363.415 66.2375 370.179C67.824 375.56 66.6519 380.551 63.2992 385.027C62.9949 384.911 63.0369 384.741 63.0442 384.612C63.15 382.407 62.0329 380.919 60.2566 379.803C58.6208 378.775 57.0198 377.695 55.5202 376.474C55.258 376.261 55.0001 376.039 54.7683 375.794C54.2177 375.215 53.9192 374.543 54.2409 373.75C54.5553 372.975 55.258 372.703 56.0071 372.717C57.695 372.746 59.1641 373.336 60.2928 374.645C60.4131 374.785 60.4609 374.993 60.7477 375.08V375.084ZM55.8665 374.448C55.9491 374.763 56.178 374.879 56.3562 375.032C57.7906 376.259 59.3713 377.282 60.9506 378.305C61.9083 378.925 62.824 379.588 63.4861 380.538C63.7831 380.964 63.9251 380.836 64.0903 380.434C64.7452 378.833 65.1523 377.161 65.1972 375.444C65.3624 369.154 62.6327 364.441 57.2241 361.291C55.4217 360.241 53.4208 359.741 51.1345 359.569C52.1386 360.152 52.9543 360.658 53.5773 361.409C55.2783 363.459 55.2667 365.778 54.6292 368.189C54.4046 369.037 54.393 369.037 55.2522 369.038C57.3994 369.041 59.5466 369.046 61.6938 369.035C62.1444 369.034 62.4226 369.121 62.4183 369.664C62.4009 372.029 62.411 374.393 62.4096 376.756C62.4096 377.006 62.3821 377.223 62.0836 377.326C61.0042 377.694 59.7118 377.182 59.2554 376.091C58.8816 375.196 56.9792 374.143 55.8694 374.448H55.8665Z" fill="#D9E2FC"/>
<g clip-path="url(#clip1_550_83)">
<path d="M18.5455 11.9221C18.5455 7.94805 18.5455 3.97403 18.5455 0C41.5063 0 64.4678 0 87.4286 0C87.4286 3.97403 87.4286 7.94805 87.4286 11.9221C64.4678 11.9221 41.5063 11.9221 18.5455 11.9221ZM27.9368 4.33786C27.9368 4.02336 27.9389 3.70886 27.9368 3.39368C27.9294 2.46938 27.9227 1.54507 27.9113 0.621455C27.9079 0.373421 27.805 0.198701 27.5332 0.197331C26.7717 0.19459 26.0103 0.188424 25.2488 0.201442C24.9293 0.206923 24.7389 0.423439 24.7402 0.720806C24.7416 1.01612 24.8956 1.15247 25.2528 1.17028C25.5542 1.18536 25.8569 1.1881 26.1569 1.21619C26.4684 1.24565 26.6385 1.44504 26.6742 1.75268C26.7085 2.04662 26.7428 2.3433 26.7435 2.63862C26.7502 4.90998 26.7495 7.18134 26.7469 9.4527C26.7469 9.65688 26.7139 9.86107 26.6944 10.0652C26.6688 10.3366 26.5107 10.4798 26.2538 10.4901C25.9753 10.501 25.6954 10.4729 25.417 10.4846C25.0174 10.5017 24.7988 10.7929 24.8768 11.178C24.9333 11.4575 25.1533 11.5603 25.5784 11.5397C26.3722 11.5014 27.1659 11.4616 27.9597 11.4514C28.3277 11.4466 28.6956 11.5199 29.0643 11.5411C29.441 11.5624 29.6408 11.3842 29.6502 11.0464C29.6603 10.6757 29.4833 10.4921 29.0932 10.4818C28.9479 10.4777 28.8019 10.4873 28.6566 10.4997C28.1245 10.5442 27.9685 10.4304 27.9611 9.89464C27.9476 8.92511 27.9294 7.95285 27.9833 6.98606C28.0115 6.48246 28.1346 5.96652 28.3095 5.49306C28.6902 4.4605 29.5829 4.01993 30.8032 4.1878C31.7126 4.31319 32.2595 4.89764 32.3268 6.02133C32.4035 7.30604 32.3732 8.5976 32.3887 9.88573C32.3887 9.93095 32.3793 9.97618 32.3719 10.0214C32.3032 10.4339 32.1734 10.5325 31.7557 10.5086C31.5323 10.4955 31.3056 10.4722 31.0857 10.4983C30.7937 10.5325 30.6679 10.7484 30.672 11.0313C30.676 11.3027 30.8072 11.4877 31.0864 11.526C31.1846 11.5397 31.2875 11.5404 31.3864 11.5295C32.5044 11.3993 33.6217 11.3959 34.7397 11.5329C34.8494 11.5466 34.963 11.535 35.0734 11.524C35.3667 11.4952 35.4729 11.3006 35.4682 11.0279C35.4622 10.6881 35.2449 10.4894 34.8662 10.4832C34.6206 10.4791 34.3744 10.5038 34.1296 10.4935C33.8578 10.4818 33.6944 10.3277 33.6728 10.044C33.65 9.7487 33.6251 9.45339 33.6183 9.15739C33.5894 7.97203 33.6224 6.7812 33.5282 5.60132C33.4233 4.28441 32.7243 3.47111 31.5929 3.24226C30.2166 2.96408 28.9512 3.13194 27.9348 4.33991L27.9368 4.33786ZM81.3098 7.54517C81.4692 7.54517 81.5903 7.54517 81.7114 7.54517C83.3252 7.54517 84.939 7.54791 86.5534 7.54106C87.0956 7.539 87.2523 7.37456 87.2819 6.82984C87.3761 5.08538 86.3852 3.63349 84.8085 3.20594C82.9646 2.70576 81.2721 3.4067 80.4864 5.00248C80.0082 5.97406 79.9422 7.01005 80.023 8.07275C80.208 10.5044 81.8439 11.9248 84.2286 11.7124C85.6096 11.5891 86.7996 10.573 87.1575 9.21015C87.1837 9.11148 87.2093 9.00939 87.2133 8.90867C87.2254 8.6298 87.1117 8.41123 86.8514 8.31325C86.5837 8.21185 86.3603 8.31257 86.2218 8.55992C86.1115 8.75656 86.028 8.96965 85.9379 9.17794C85.5699 10.0276 84.9706 10.5545 84.0315 10.6326C83.0184 10.7169 82.2327 10.3503 81.7222 9.43968C81.4033 8.8703 81.2943 8.24747 81.3085 7.54585L81.3098 7.54517ZM36.6771 7.53146C36.8351 7.53146 36.9562 7.53146 37.078 7.53146C38.5229 7.53146 39.9685 7.53146 41.4134 7.53146C42.4662 7.53146 42.5658 7.42389 42.5059 6.34474C42.4137 4.66263 41.4033 3.41424 39.8797 3.09768C38.0883 2.72563 36.5701 3.44233 35.8416 5.02098C35.364 6.05559 35.3001 7.15462 35.4366 8.26872C35.6667 10.1468 36.8432 11.896 39.3631 11.7268C41.067 11.6124 41.9751 10.4962 42.4043 9.19919C42.446 9.07243 42.4568 8.92854 42.4507 8.79425C42.44 8.54484 42.3175 8.36258 42.0754 8.2831C41.8211 8.19951 41.6274 8.3064 41.5043 8.52086C41.3865 8.72573 41.3011 8.95047 41.2076 9.16972C40.839 10.0344 40.2383 10.5695 39.2777 10.6312C38.2626 10.6963 37.5219 10.2749 37.049 9.36568C36.7591 8.80932 36.6703 8.20568 36.6771 7.53215V7.53146ZM55.3192 7.28754C55.3064 7.09912 55.2984 6.83601 55.2701 6.57564C55.0777 4.79076 54.0566 3.23952 51.9686 3.0415C50.1523 2.86952 48.6515 3.82534 48.0959 5.57597C47.8329 6.40572 47.7993 7.26082 47.8854 8.11729C48.0851 10.1016 49.3222 11.9365 51.9719 11.7172C53.2547 11.611 54.2113 10.9889 54.8073 9.81584C55.1981 9.04571 55.3004 8.21322 55.3179 7.28823L55.3192 7.28754ZM72.2292 7.37799C72.2292 7.58354 72.2151 7.78978 72.2312 7.99396C72.39 10.0173 73.5322 11.933 76.2068 11.7206C77.7614 11.5973 79.0126 10.4133 79.2003 8.83467C79.242 8.48112 79.1014 8.20773 78.8276 8.11044C78.5579 8.0152 78.3184 8.12209 78.1522 8.46399C77.9941 8.78945 77.8838 9.13889 77.7392 9.47189C77.0524 11.0519 75.0733 10.9142 74.2917 10.0337C73.7872 9.4664 73.5396 8.79904 73.4764 8.0522C73.3869 6.9984 73.4602 5.96789 74.0677 5.0614C74.772 4.01034 76.4275 3.73695 77.3114 4.50504C77.7197 4.85996 77.7103 5.11827 77.2831 5.41769C76.9851 5.62667 76.8755 5.91924 76.9266 6.28033C76.9683 6.5777 77.1526 6.74351 77.4197 6.82368C78.1024 7.02923 78.7805 6.6421 78.9695 5.94322C79.2131 5.04427 78.7926 4.05556 77.9323 3.51085C77.1728 3.03054 76.3306 2.94421 75.4695 3.02095C74.2116 3.13331 73.28 3.76779 72.7068 4.92026C72.3234 5.69108 72.2037 6.5222 72.2306 7.3773L72.2292 7.37799ZM58.9363 4.34471C59.0419 4.33854 59.1286 4.32621 59.2147 4.32963C59.5841 4.34334 59.9534 4.37211 60.3233 4.37485C60.5985 4.37691 60.8097 4.25632 60.8373 3.9473C60.8655 3.63281 60.6933 3.44301 60.402 3.39916C60.1834 3.36627 59.9567 3.38888 59.7334 3.38751C59.4589 3.38683 59.1845 3.38751 58.9127 3.38751C58.7089 1.88218 59.3863 1.11204 60.5117 1.22304C60.9193 1.26347 60.9711 1.31554 60.9052 1.73692C60.8265 2.24121 61.0162 2.50706 61.4965 2.5653C61.9573 2.6208 62.2923 2.3529 62.3374 1.89314C62.4019 1.23537 62.0575 0.64064 61.3606 0.439884C60.877 0.300793 60.3435 0.258312 59.8397 0.291885C58.7143 0.367255 57.9602 1.09423 57.7604 2.2282C57.6925 2.61464 57.6844 3.01204 57.6467 3.43274C57.2545 3.41013 56.8731 3.35257 56.4971 3.37998C56.2751 3.39642 55.9906 3.48892 55.8614 3.65131C55.6017 3.97882 55.8607 4.36937 56.3094 4.37622C56.7628 4.38308 57.2169 4.3776 57.6918 4.3776C57.6918 5.63147 57.6931 6.88603 57.6911 8.14127C57.6898 8.71202 57.7039 9.28415 57.6696 9.85284C57.6333 10.451 57.4691 10.575 56.8825 10.5593C56.6592 10.5531 56.4325 10.5264 56.2132 10.5558C55.9112 10.5963 55.78 10.8114 55.7867 11.1149C55.7935 11.4274 55.9737 11.5651 56.2583 11.5795C56.4258 11.5877 56.594 11.572 56.7621 11.5678C57.5895 11.5487 58.4169 11.5206 59.245 11.5158C59.6022 11.5137 59.9601 11.5788 60.318 11.5809C60.6489 11.5829 60.8366 11.3849 60.8433 11.0841C60.8507 10.773 60.6832 10.5723 60.357 10.5456C60.135 10.5271 59.9096 10.5435 59.6863 10.5538C59.1132 10.5798 59.0123 10.5003 58.9477 9.93438C58.9282 9.76446 58.9188 9.59316 58.9188 9.42187C58.9167 7.835 58.9167 6.24744 58.9181 4.66057C58.9181 4.56054 58.9289 4.46119 58.9363 4.34334V4.34471ZM63.4877 4.37828C63.493 4.39678 63.5105 4.42898 63.5105 4.46119C63.5051 6.26389 63.5072 8.06727 63.4856 9.86997C63.4789 10.4448 63.3047 10.5737 62.7268 10.5613C62.4927 10.5565 62.2526 10.525 62.0246 10.5627C61.7232 10.612 61.6035 10.847 61.6216 11.143C61.6391 11.4294 61.816 11.5692 62.0871 11.5815C62.2546 11.5891 62.4228 11.574 62.5903 11.5706C63.4285 11.5521 64.2666 11.5254 65.1055 11.5199C65.4512 11.5178 65.7977 11.5815 66.1441 11.5802C66.4582 11.5788 66.6304 11.3876 66.6412 11.0951C66.6526 10.7771 66.4932 10.5723 66.169 10.5483C65.9026 10.5284 65.6329 10.5572 65.3644 10.5606C64.9568 10.5661 64.8142 10.4428 64.7678 10.0358C64.7523 9.90012 64.7489 9.7624 64.7489 9.62537C64.7462 7.94805 64.7449 6.27005 64.7456 4.59274C64.7456 4.50778 64.7671 4.42213 64.7799 4.32826C64.8747 4.32826 64.9407 4.32621 65.0073 4.32826C65.388 4.34402 65.7681 4.3728 66.1488 4.3728C66.4085 4.3728 66.6076 4.25084 66.6372 3.95758C66.6668 3.66227 66.5295 3.46151 66.2477 3.4115C66.0304 3.37313 65.8037 3.38683 65.5817 3.38409C65.2952 3.38066 65.0086 3.3834 64.6763 3.3834C64.6965 3.05315 64.685 2.73249 64.7402 2.42347C64.8929 1.57043 65.3712 1.19495 66.2221 1.22099C66.7253 1.23606 66.7576 1.27374 66.7004 1.78077C66.6466 2.25903 66.8242 2.49953 67.2762 2.56256C67.7236 2.62491 68.0633 2.37482 68.1231 1.94042C68.2092 1.31691 67.9052 0.776305 67.293 0.482365C66.7105 0.202812 66.093 0.200757 65.4815 0.31107C64.3379 0.517309 63.6726 1.26552 63.5455 2.44197C63.5119 2.75578 63.4991 3.07233 63.4735 3.42794C63.0417 3.4067 62.6192 3.36833 62.1974 3.37039C61.8281 3.37176 61.6001 3.61705 61.6176 3.9384C61.6344 4.24604 61.816 4.37897 62.2149 4.37828C62.6286 4.3776 63.0417 4.37828 63.487 4.37828H63.4877ZM20.1229 7.24026C20.135 7.24026 20.1471 7.24026 20.1592 7.24026C20.1592 8.06179 20.1236 8.88606 20.1693 9.70485C20.211 10.4544 20.4209 11.1547 21.175 11.511C22.0865 11.9419 23.4063 11.7624 24.0534 11.1245C24.7227 10.4654 25.092 8.70791 24.7402 7.88022C24.6239 7.60683 24.4106 7.52804 24.1436 7.53421C23.8819 7.53969 23.7177 7.68768 23.6639 7.93229C23.6202 8.12962 23.6168 8.33792 23.6115 8.5421C23.602 8.88332 23.6363 9.22865 23.596 9.56576C23.5159 10.2338 23.0921 10.6024 22.4692 10.5969C21.814 10.5908 21.4669 10.2948 21.442 9.55479C21.3882 7.95833 21.3923 6.3605 21.3728 4.76266C21.3694 4.50298 21.4945 4.40089 21.7495 4.405C22.2647 4.41322 22.7807 4.41322 23.296 4.39472C23.7144 4.37965 23.9162 4.17615 23.9074 3.82466C23.8987 3.48412 23.6767 3.29296 23.2617 3.28816C22.7464 3.282 22.2298 3.27583 21.7145 3.29022C21.4488 3.29776 21.3566 3.19498 21.3654 2.92913C21.3802 2.48445 21.3707 2.0384 21.3687 1.59304C21.3667 1.14973 21.1488 0.904434 20.7599 0.904434C20.3718 0.904434 20.1707 1.14082 20.1686 1.60537C20.1666 2.06238 20.1626 2.51871 20.1693 2.97572C20.1727 3.19361 20.0805 3.29022 19.8686 3.28611C19.6446 3.282 19.4199 3.2772 19.1959 3.2909C18.8576 3.31146 18.6921 3.50057 18.6894 3.84521C18.6874 4.19534 18.8428 4.37074 19.1899 4.39747C19.3352 4.40843 19.4812 4.40569 19.6265 4.40637C20.094 4.40843 20.1142 4.41939 20.1195 4.90929C20.1276 5.6856 20.1216 6.4619 20.1216 7.23889L20.1229 7.24026ZM70.6128 6.81683C70.6128 5.89321 70.6148 4.9689 70.6121 4.04528C70.6101 3.38203 70.5065 3.29913 69.8654 3.33202C69.3851 3.35668 68.9035 3.34092 68.4225 3.34024C68.333 3.34024 68.2435 3.31831 68.1548 3.32379C67.8433 3.34298 67.6442 3.5684 67.6489 3.88701C67.6536 4.20767 67.7733 4.31319 68.1527 4.32415C68.2873 4.32758 68.4211 4.32415 68.5557 4.32621C69.1846 4.33169 69.3851 4.48791 69.3986 5.11827C69.4308 6.64553 69.4315 8.17348 69.4409 9.70142C69.4416 9.83708 69.4147 9.97343 69.3986 10.1091C69.3649 10.3852 69.2156 10.5497 68.9398 10.5606C68.7171 10.5695 68.4938 10.5483 68.2705 10.5476C67.8601 10.5462 67.6509 10.7326 67.6496 11.093C67.6482 11.4479 67.8312 11.6288 68.257 11.5836C69.4308 11.4589 70.602 11.4342 71.7738 11.5898C71.8175 11.5952 71.8633 11.5898 71.9077 11.587C72.1761 11.5726 72.3537 11.461 72.3712 11.1588C72.3886 10.8573 72.2837 10.6346 71.9823 10.5723C71.8222 10.5387 71.648 10.5572 71.4819 10.5723C70.8764 10.6257 70.6901 10.4777 70.6296 9.86312C70.6114 9.68223 70.6134 9.49861 70.6134 9.31635C70.6121 8.48386 70.6128 7.65137 70.6128 6.8182V6.81683ZM69.7531 0.687232C69.2741 0.695455 68.8961 1.09491 68.8961 1.59372C68.8961 2.11034 69.2849 2.49541 69.7948 2.4824C70.2589 2.47006 70.6148 2.07814 70.6114 1.58276C70.6074 1.07093 70.232 0.67901 69.7537 0.687232H69.7531Z" fill="#D9E2FC"/>
<path d="M81.3979 6.46054C81.552 4.84352 82.6269 3.96032 84.129 4.17136C85.2397 4.32758 86.0516 5.38755 85.8652 6.46054H81.3979Z" fill="#D9E2FC"/>
<path d="M41.1733 6.429H36.8015C36.6757 5.2916 37.6868 4.15078 38.8552 4.10214C40.2847 4.04253 41.2036 4.94901 41.1733 6.429Z" fill="#D9E2FC"/>
<path d="M54.214 7.42461C54.0747 8.00015 53.9934 8.62983 53.768 9.20058C53.3731 10.2016 52.5235 10.6669 51.3914 10.6189C50.4039 10.5771 49.6263 10.0098 49.2946 9.0286C48.926 7.93849 48.9213 6.8285 49.2967 5.73907C49.6606 4.6839 50.49 4.11315 51.5791 4.11109C52.6756 4.10903 53.4983 4.66334 53.8568 5.73359C54.0317 6.25501 54.0895 6.81617 54.2133 7.42461H54.214Z" fill="#D9E2FC"/>
</g>
<defs>
<clipPath id="clip0_550_83">
<rect width="39.7403" height="39.7403" fill="white" transform="translate(35.7662 86.1039)"/>
</clipPath>
<clipPath id="clip1_550_83">
<rect width="68.8831" height="11.9221" fill="white" transform="translate(18.5455)"/>
</clipPath>
</defs>
</svg>
