<svg width="188" height="418" viewBox="0 0 188 418" fill="none" xmlns="http://www.w3.org/2000/svg">
<g clip-path="url(#clip0_550_92)">
<path d="M116.28 41.0299C116.105 41.1283 116.017 41.3012 116.017 41.5491V44.792C116.017 44.8006 116.009 44.8135 115.992 44.8306C115.785 44.9849 115.559 45.1099 115.319 45.2022C115.074 45.2966 114.821 45.3675 114.562 45.4139C114.304 45.4604 114.043 45.4903 113.78 45.5035C113.52 45.5163 113.265 45.5226 113.018 45.5226C112.642 45.5226 112.261 45.5097 111.877 45.4841C111.202 45.4328 110.593 45.2621 110.05 44.9714C109.508 44.6809 109.046 44.3029 108.666 43.837C108.286 43.3714 107.993 42.8415 107.788 42.2476C107.583 41.6537 107.48 41.0278 107.48 40.3697C107.48 39.6091 107.617 38.9362 107.89 38.3509C108.164 37.7657 108.538 37.2741 109.012 36.8768C109.486 36.4795 110.04 36.1805 110.672 35.9795C111.304 35.7788 111.979 35.6783 112.697 35.6783C113.082 35.6783 113.468 35.6997 113.857 35.7423C114.24 35.7845 114.623 35.8315 115.004 35.8833C115.175 35.9091 115.344 35.9346 115.511 35.9603C115.677 35.986 115.846 36.0074 116.017 36.0243C116.051 36.0243 116.068 36.0416 116.068 36.0756C116.052 36.378 116.022 36.6796 115.978 36.9793C115.935 37.2762 115.893 37.5732 115.85 37.8702C115.842 37.9301 115.833 37.9878 115.825 38.0432C115.816 38.0989 115.807 38.1521 115.799 38.2034C115.799 38.2292 115.784 38.2441 115.754 38.2483C115.724 38.2527 115.705 38.242 115.696 38.2163C115.628 37.8489 115.504 37.5327 115.325 37.2677C115.145 37.0029 114.925 36.7829 114.665 36.6076C114.404 36.4326 114.111 36.3044 113.787 36.223C113.462 36.1419 113.124 36.1012 112.774 36.1012C112.184 36.1012 111.635 36.1996 111.127 36.3961C110.618 36.5928 110.176 36.8683 109.8 37.2229C109.424 37.5776 109.127 38.0049 108.909 38.5047C108.692 39.0047 108.583 39.5539 108.583 40.1519C108.583 40.8014 108.702 41.4144 108.942 41.9912C109.181 42.568 109.508 43.0724 109.922 43.5037C110.337 43.9355 110.828 44.2773 111.396 44.5293C111.964 44.7813 112.578 44.9073 113.236 44.9073C113.518 44.9073 113.804 44.8752 114.094 44.8111C114.385 44.7471 114.633 44.6083 114.838 44.3947V41.5106C114.838 41.3055 114.774 41.1668 114.646 41.0941C114.518 41.0216 114.372 40.9594 114.21 40.9082C114.14 40.8908 114.072 40.8693 114.005 40.8441C113.936 40.8185 113.868 40.7844 113.8 40.7416C113.774 40.7245 113.765 40.7053 113.774 40.6839C113.782 40.6627 113.8 40.6519 113.825 40.6519C114.338 40.6519 114.844 40.6563 115.344 40.6647C115.844 40.6733 116.35 40.6904 116.863 40.716L116.876 40.8185C116.654 40.8612 116.455 40.9317 116.28 41.0299ZM123.029 44.4331C122.915 44.4241 122.802 44.4156 122.689 44.4074C122.619 44.3987 122.548 44.3923 122.478 44.3883C122.403 44.3839 122.328 44.3817 122.253 44.3818C122.056 44.3818 121.86 44.3904 121.664 44.4076C121.467 44.4248 121.27 44.4418 121.074 44.4588C121.048 44.4588 121.031 44.4459 121.023 44.4203C121.014 44.3947 121.023 44.3734 121.048 44.3563L121.548 44.1129C121.404 43.7147 121.252 43.3194 121.093 42.9271C120.932 42.5311 120.781 42.1315 120.638 41.7286H118.651C118.588 41.8927 118.527 42.0572 118.465 42.222C118.382 42.4468 118.303 42.6733 118.228 42.9014C118.156 43.1222 118.087 43.3445 118.023 43.5679C117.963 43.7774 117.934 43.9289 117.934 44.023C117.934 44.1511 117.989 44.2345 118.1 44.2729C118.211 44.3114 118.318 44.3392 118.421 44.3563V44.4588C118.258 44.4418 118.092 44.4267 117.921 44.4139C117.579 44.3884 117.237 44.3884 116.895 44.4139C116.724 44.4267 116.553 44.4418 116.383 44.4588C116.357 44.4674 116.342 44.4546 116.338 44.4203C116.333 44.3863 116.344 44.3648 116.37 44.3563C116.84 44.2966 117.169 44.0486 117.357 43.6128V43.6256C117.605 43.002 117.844 42.378 118.075 41.7542C118.306 41.1279 118.533 40.4998 118.754 39.8699C118.908 39.4427 119.057 39.0175 119.203 38.5944C119.35 38.1668 119.503 37.7416 119.664 37.319C119.672 37.2934 119.69 37.2806 119.715 37.2806C119.741 37.2806 119.758 37.2934 119.767 37.319C119.809 37.4375 119.854 37.555 119.901 37.6715C119.948 37.788 119.993 37.9056 120.036 38.024C120.389 38.9897 120.755 39.9512 121.132 40.908C121.513 41.8756 121.947 42.8212 122.433 43.7407C122.535 43.9375 122.666 44.0783 122.824 44.1637C122.982 44.2491 123.163 44.3004 123.368 44.3174V44.4199C123.248 44.4375 123.135 44.4417 123.029 44.4331ZM119.651 38.6394C119.509 39.0807 119.371 39.523 119.235 39.9662C119.096 40.4156 118.949 40.8622 118.792 41.3057H120.446L119.651 38.6394ZM132.619 44.4459H131.58C131.238 44.4459 130.901 44.4375 130.568 44.4203C130.516 44.4203 130.499 44.3989 130.516 44.3562C130.525 44.3391 130.531 44.3221 130.536 44.305C130.54 44.2873 130.546 44.2701 130.555 44.2538L130.632 44.0231C130.657 43.9461 130.67 43.8736 130.67 43.8051C130.67 43.318 130.646 42.8373 130.599 42.3631C130.552 41.8861 130.499 41.4097 130.439 40.934C130.409 40.6753 130.377 40.4168 130.343 40.1585C130.313 39.9323 130.29 39.6695 130.272 39.3702C129.95 39.9888 129.638 40.6126 129.337 41.2415C129.038 41.8654 128.739 42.4977 128.44 43.1386C128.338 43.3496 128.238 43.561 128.138 43.7729C128.039 43.9849 127.938 44.1964 127.837 44.4075C127.829 44.4247 127.816 44.4332 127.799 44.4332C127.781 44.4332 127.764 44.4247 127.747 44.4075C127.354 43.8607 127.015 43.303 126.728 42.7348C126.444 42.1707 126.173 41.6002 125.914 41.0236C125.79 40.7533 125.669 40.482 125.549 40.2097C125.43 39.9396 125.304 39.6725 125.171 39.4085C125.146 39.6159 125.121 39.8231 125.094 40.0302C125.068 40.2311 125.043 40.4298 125.017 40.6262C124.949 41.1508 124.89 41.6764 124.838 42.2028C124.786 42.731 124.76 43.2615 124.761 43.7922C124.761 43.946 124.799 44.0507 124.876 44.1062C124.953 44.162 125.047 44.2111 125.158 44.2537C125.192 44.2709 125.239 44.29 125.299 44.3112C125.359 44.3328 125.397 44.3476 125.414 44.3561C125.44 44.3733 125.449 44.3946 125.44 44.4202C125.432 44.4458 125.414 44.4586 125.389 44.4586C125.269 44.4586 125.152 44.4567 125.036 44.4522C124.919 44.4479 124.801 44.4415 124.684 44.4331C124.564 44.4246 124.445 44.4182 124.325 44.4139C124.205 44.4097 124.086 44.4076 123.966 44.4076H123.71C123.633 44.4076 123.547 44.4162 123.453 44.4333C123.428 44.4419 123.41 44.429 123.402 44.3948C123.393 44.3608 123.402 44.3392 123.428 44.3308C123.496 44.3137 123.547 44.3051 123.582 44.3051C123.664 44.2908 123.745 44.2716 123.825 44.2474C123.893 44.2261 123.957 44.1685 124.017 44.0744C124.034 44.0486 124.058 43.9379 124.088 43.7411C124.118 43.5446 124.152 43.2948 124.19 42.9913C124.229 42.6881 124.271 42.344 124.318 41.9595C124.366 41.5667 124.411 41.1736 124.453 40.7802C124.496 40.3787 124.538 39.9836 124.581 39.5946C124.624 39.2058 124.662 38.849 124.697 38.5242C124.731 38.2423 124.756 37.9923 124.774 37.7744C124.791 37.5565 124.808 37.4006 124.825 37.3065C124.825 37.2808 124.835 37.2662 124.857 37.2616C124.878 37.2575 124.897 37.2638 124.915 37.2808C125.017 37.392 125.162 37.6121 125.35 37.9409C125.538 38.27 125.741 38.6523 125.959 39.0881C126.189 39.548 126.415 40.0095 126.639 40.4725C126.857 40.9243 127.072 41.3772 127.286 41.8311C127.431 42.1304 127.551 42.3868 127.645 42.6003C127.739 42.814 127.824 42.9934 127.901 43.1386C128.047 42.845 128.186 42.548 128.318 42.2477C128.459 41.9272 128.598 41.609 128.734 41.2928C129.04 40.5872 129.356 39.8864 129.683 39.1907C130.016 38.4815 130.371 37.8492 130.747 37.2937C130.764 37.2766 130.781 37.2702 130.798 37.2744C130.815 37.2788 130.824 37.2937 130.824 37.3193C130.841 37.4218 130.856 37.565 130.869 37.7487C130.881 37.9327 130.901 38.144 130.926 38.3832C130.952 38.6995 130.984 39.0456 131.022 39.4215C131.061 39.7975 131.101 40.1822 131.144 40.5751C131.187 40.9682 131.23 41.3506 131.272 41.7223C131.311 42.0628 131.356 42.4025 131.407 42.7414C131.454 43.049 131.499 43.3075 131.542 43.5167C131.584 43.7263 131.627 43.8565 131.67 43.9076C131.764 44.0445 131.853 44.1321 131.939 44.1705C132.024 44.2091 132.127 44.2369 132.247 44.254C132.306 44.2711 132.368 44.2818 132.432 44.286C132.497 44.2904 132.563 44.3096 132.631 44.3436L132.619 44.4459ZM136.729 43.7986C136.702 43.9886 136.677 44.1787 136.652 44.369C136.652 44.3947 136.635 44.4075 136.601 44.4075L136.588 44.4203C136.519 44.4459 136.464 44.4587 136.421 44.4587C136.225 44.4587 136.026 44.4569 135.825 44.4523C135.627 44.448 135.428 44.4459 135.229 44.4459C135.058 44.4459 134.892 44.444 134.729 44.4396C134.563 44.4352 134.396 44.4331 134.229 44.4332C133.999 44.4332 133.766 44.4353 133.531 44.4396C133.296 44.444 133.063 44.4504 132.832 44.4587V44.3562C132.96 44.3562 133.065 44.3285 133.146 44.2728C133.225 44.2195 133.289 44.1467 133.332 44.0613C133.375 43.976 133.403 43.8798 133.415 43.7729C133.428 43.6663 133.435 43.5572 133.435 43.4462V38.1139C133.435 37.943 133.394 37.832 133.313 37.7807C133.23 37.7287 133.142 37.6857 133.05 37.6525L132.877 37.5948C132.813 37.5736 132.747 37.5414 132.678 37.4987C132.661 37.4816 132.655 37.4624 132.659 37.441C132.663 37.4198 132.678 37.4089 132.704 37.4089H136.357C136.392 37.3914 136.429 37.3764 136.466 37.364C136.505 37.3512 136.541 37.3364 136.575 37.3191C136.618 37.3021 136.639 37.3191 136.639 37.3704C136.616 37.5788 136.583 37.7862 136.543 37.9921C136.504 38.1843 136.464 38.3787 136.421 38.5753C136.413 38.601 136.393 38.6116 136.363 38.6073C136.333 38.6031 136.319 38.5882 136.319 38.5624C136.301 38.2634 136.199 38.067 136.011 37.9728C135.823 37.8788 135.592 37.8318 135.319 37.8318H134.306V40.4596H135.793C135.836 40.4596 135.891 40.4468 135.96 40.421C136.028 40.3953 136.096 40.3698 136.165 40.3441C136.254 40.2948 136.349 40.2561 136.447 40.2287C136.489 40.2117 136.511 40.2287 136.511 40.2799C136.502 40.3824 136.492 40.4937 136.479 40.6132C136.467 40.7247 136.452 40.8358 136.434 40.9464C136.416 41.0526 136.403 41.1595 136.395 41.2669C136.387 41.3742 136.374 41.4811 136.357 41.5873C136.357 41.613 136.346 41.6302 136.325 41.6386C136.303 41.6472 136.284 41.643 136.267 41.6257C136.224 41.5831 136.197 41.5405 136.184 41.4976C136.17 41.4503 136.155 41.4034 136.139 41.3566C136.122 41.3054 136.105 41.2541 136.088 41.2028C136.07 41.1516 136.041 41.1047 135.998 41.0619C135.955 41.0192 135.876 40.9873 135.761 40.9657C135.638 40.9434 135.514 40.9263 135.389 40.9145C135.259 40.9019 135.129 40.8955 134.998 40.8954H134.319V43.5359C134.447 43.724 134.628 43.8671 134.863 43.9653C135.098 44.0637 135.327 44.1127 135.549 44.1127C135.848 44.1127 136.102 44.0337 136.312 43.8756C136.521 43.7176 136.66 43.4933 136.728 43.2026L136.831 43.2283C136.79 43.4171 136.756 43.6073 136.729 43.7986ZM144.545 39.9517C144.54 39.9664 144.529 39.9726 144.512 39.9701C144.495 39.9677 144.486 39.959 144.486 39.9443C144.486 39.7825 144.442 39.6685 144.354 39.6023C144.265 39.5362 144.143 39.5031 143.986 39.5031C143.917 39.5031 143.852 39.5068 143.791 39.5142C143.73 39.5215 143.665 39.53 143.596 39.5399C143.547 39.5498 143.493 39.5572 143.434 39.5621C143.376 39.567 143.322 39.5694 143.273 39.5694V41.0107H144.265C144.299 41.0107 144.339 40.996 144.383 40.9666C144.427 40.9372 144.461 40.9077 144.486 40.8785C144.495 40.8687 144.507 40.8662 144.519 40.871C144.531 40.8761 144.537 40.8858 144.537 40.9004C144.519 41.1645 144.484 41.4272 144.434 41.6872C144.429 41.702 144.418 41.7081 144.401 41.7056C144.384 41.7033 144.376 41.6945 144.376 41.6798C144.38 41.518 144.34 41.4066 144.254 41.3453C144.168 41.284 144.047 41.2535 143.89 41.2535H143.272V42.7241C143.272 42.7828 143.285 42.8441 143.309 42.908C143.334 42.9717 143.368 43.0281 143.412 43.0771C143.456 43.1262 143.508 43.1652 143.567 43.1948C143.625 43.2241 143.689 43.2388 143.758 43.2388V43.2977H143.706C143.652 43.2977 143.601 43.2952 143.552 43.2904C143.503 43.2855 143.451 43.2807 143.397 43.2755C143.346 43.271 143.295 43.2673 143.243 43.2646C143.194 43.2621 143.145 43.2609 143.096 43.2609C143.047 43.2609 142.998 43.2634 142.949 43.2682L142.802 43.2829C142.69 43.2926 142.577 43.2975 142.464 43.2977H142.42C142.405 43.2977 142.396 43.289 142.394 43.2718C142.391 43.2547 142.398 43.2437 142.412 43.2388C142.501 43.224 142.569 43.2058 142.618 43.1837C142.667 43.1615 142.703 43.1322 142.725 43.0954C142.747 43.0587 142.759 43.0122 142.762 42.9556C142.764 42.8993 142.765 42.827 142.765 42.7388V39.665C142.765 39.5522 142.743 39.4824 142.699 39.4554C142.651 39.4269 142.599 39.4059 142.545 39.393C142.514 39.3811 142.484 39.37 142.453 39.3598C142.413 39.3462 142.375 39.3276 142.339 39.3046C142.324 39.2949 142.319 39.2838 142.324 39.2716C142.329 39.2595 142.339 39.2532 142.354 39.2532C142.663 39.2679 142.974 39.2753 143.287 39.2753H143.81C143.834 39.2753 143.86 39.2766 143.887 39.279C143.914 39.2814 143.942 39.2827 143.971 39.2827C144.084 39.2877 144.2 39.2877 144.32 39.2827C144.441 39.2778 144.545 39.2509 144.633 39.2017C144.643 39.1919 144.654 39.1919 144.666 39.2017C144.678 39.2116 144.682 39.2239 144.677 39.2385L144.545 39.9517Z" fill="#D9E2FC"/>
<path d="M184.664 36.3329C184.655 36.634 184.614 36.9055 184.543 37.148C184.534 37.1749 184.516 37.1884 184.489 37.1884C184.462 37.1884 184.444 37.1749 184.435 37.148C184.39 36.9235 184.32 36.7418 184.226 36.6023C184.134 36.4658 184.012 36.3527 183.869 36.2723C183.725 36.1914 183.563 36.1355 183.384 36.1039C183.197 36.0719 183.007 36.0562 182.818 36.0567H148.636V43.9253C148.636 44.2847 148.75 44.5902 148.979 44.8416C149.208 45.0933 149.493 45.2458 149.835 45.2998C149.861 45.3086 149.873 45.329 149.868 45.3602C149.864 45.3917 149.848 45.4073 149.821 45.4073C149.505 45.3803 149.188 45.3579 148.871 45.34C148.552 45.3221 148.231 45.3132 147.908 45.3132C147.674 45.3132 147.443 45.3198 147.214 45.3333C146.985 45.3468 146.754 45.3626 146.52 45.3804C146.493 45.3804 146.477 45.3649 146.473 45.3333C146.468 45.302 146.48 45.2817 146.507 45.2728C146.722 45.2279 146.891 45.1784 147.012 45.1246C147.133 45.0706 147.223 44.999 147.281 44.9088C147.34 44.8192 147.376 44.7047 147.389 44.5653C147.403 44.426 147.41 44.2486 147.41 44.0331V36.0701H145.187C144.899 36.0701 144.645 36.1711 144.425 36.3732C144.205 36.5753 144.041 36.8022 143.933 37.0536C143.915 37.0806 143.895 37.0919 143.873 37.0873C143.85 37.0828 143.839 37.0671 143.839 37.0401C143.821 36.9504 143.812 36.8696 143.812 36.7976C143.812 36.6181 143.835 36.4429 143.879 36.2721C143.95 36.0076 144.026 35.7448 144.109 35.4839C144.136 35.3987 144.158 35.3155 144.176 35.2346C144.194 35.1808 144.221 35.1718 144.257 35.2076C144.446 35.3245 144.629 35.3987 144.809 35.4301C144.989 35.4616 145.195 35.4772 145.429 35.4772H183.829C183.9 35.4772 183.979 35.466 184.064 35.4435C184.15 35.4211 184.228 35.4009 184.3 35.3829C184.352 35.373 184.403 35.364 184.455 35.356C184.513 35.3472 184.574 35.338 184.637 35.3291C184.664 35.3291 184.677 35.3472 184.677 35.3829V35.4907C184.677 35.7714 184.672 36.0522 184.664 36.3329Z" fill="#D9E2FC"/>
<path d="M156.892 44.4843C156.444 44.4587 155.995 44.4458 155.546 44.4457C155.383 44.4457 155.223 44.4479 155.065 44.4522C154.907 44.4567 154.742 44.4629 154.572 44.4713C154.546 44.4713 154.531 44.4566 154.527 44.4265C154.522 44.3966 154.533 44.3774 154.559 44.3688C154.824 44.2918 154.995 44.1894 155.072 44.0612C155.149 43.933 155.187 43.7322 155.187 43.4587V40.7927H151.252V43.4844C151.252 44.0228 151.53 44.3177 152.085 44.3689C152.111 44.3689 152.124 44.3861 152.124 44.4202C152.124 44.4545 152.111 44.4714 152.085 44.4714H151.688C151.568 44.4714 151.44 44.4759 151.303 44.4842C151.209 44.4842 151.1 44.4863 150.976 44.4905C150.853 44.495 150.743 44.4969 150.65 44.4969H150.329C150.218 44.4969 150.107 44.4927 149.996 44.4842C149.962 44.4842 149.921 44.4822 149.874 44.4779C149.834 44.4738 149.793 44.4717 149.752 44.4714C149.727 44.4714 149.712 44.4566 149.708 44.4266C149.703 44.3967 149.714 44.3775 149.74 44.3689C149.876 44.3432 149.987 44.3156 150.073 44.2856C150.158 44.2558 150.222 44.2131 150.265 44.1574C150.308 44.1019 150.336 44.0314 150.348 43.9458C150.361 43.8606 150.367 43.7494 150.367 43.6127V38.1522C150.367 37.9643 150.293 37.8234 150.143 37.7293C149.994 37.6355 149.834 37.5842 149.663 37.5756V37.4731C150.021 37.4988 150.376 37.5116 150.726 37.5116C150.872 37.5116 151.017 37.5096 151.162 37.5051C151.308 37.501 151.453 37.4988 151.598 37.4988H151.867C151.893 37.4988 151.906 37.516 151.906 37.55C151.906 37.5843 151.893 37.6013 151.867 37.6013C151.714 37.6013 151.575 37.6483 151.451 37.7423C151.327 37.8365 151.265 37.9688 151.265 38.1397V40.37H155.187V38.1909C155.187 37.9857 155.134 37.8555 155.027 37.7999C154.92 37.7444 154.79 37.6953 154.636 37.6525C154.604 37.6446 154.572 37.636 154.54 37.6268C154.508 37.6178 154.476 37.6092 154.444 37.6011C154.418 37.5925 154.407 37.5735 154.412 37.5434C154.416 37.5136 154.431 37.4986 154.457 37.4986C155.026 37.5348 155.597 37.5454 156.168 37.5306C156.343 37.5263 156.516 37.52 156.687 37.5114C156.713 37.5114 156.727 37.5264 156.732 37.5563C156.736 37.5863 156.726 37.6056 156.7 37.6139C156.512 37.6481 156.362 37.6973 156.251 37.7612C156.14 37.8254 156.085 37.9643 156.085 38.1778V43.4332C156.085 43.7239 156.149 43.9417 156.277 44.0869C156.405 44.2324 156.614 44.3305 156.905 44.3818L156.892 44.4843ZM163.766 44.5804C163.613 44.6183 163.456 44.6376 163.298 44.6381C163.042 44.6381 162.811 44.5912 162.606 44.4971C162.401 44.4032 162.217 44.2836 162.055 44.1381C161.893 43.993 161.741 43.8263 161.6 43.6383C161.459 43.4505 161.325 43.2582 161.197 43.0615C161.076 42.8806 160.95 42.7032 160.819 42.5296C160.686 42.3546 160.541 42.1965 160.383 42.0553C160.224 41.9142 160.054 41.8012 159.87 41.7156C159.686 41.6303 159.479 41.5874 159.248 41.5874H159.043C158.983 41.5874 158.919 41.596 158.851 41.6131V43.4332C158.851 43.6811 158.926 43.8927 159.075 44.0676C159.225 44.2429 159.423 44.3432 159.671 44.3689V44.4714C159.477 44.4546 159.282 44.4397 159.088 44.4266C158.894 44.4137 158.699 44.4073 158.505 44.4074C158.308 44.4074 158.118 44.416 157.934 44.4331C157.75 44.4503 157.56 44.4716 157.364 44.4971C157.338 44.5057 157.319 44.4952 157.306 44.465C157.293 44.4352 157.3 44.4117 157.325 44.3945C157.505 44.3092 157.654 44.1811 157.774 44.0099C157.893 43.839 157.953 43.6554 157.953 43.4587V38.3445C157.953 38.148 157.883 37.975 157.742 37.8254C157.601 37.6759 157.432 37.5753 157.236 37.524C157.21 37.5156 157.199 37.4964 157.203 37.4664C157.208 37.4366 157.223 37.4215 157.248 37.4215H159.774C160.038 37.4215 160.299 37.4536 160.556 37.5176C160.812 37.5817 161.038 37.6823 161.235 37.8189C161.431 37.9556 161.589 38.135 161.709 38.3572C161.829 38.5795 161.889 38.8443 161.889 39.152C161.889 39.5621 161.775 39.9511 161.549 40.3183C161.322 40.6858 161.068 41.0021 160.786 41.2669C160.88 41.3693 160.983 41.4998 161.094 41.6578C161.211 41.8242 161.33 41.9888 161.453 42.1514C161.647 42.417 161.846 42.6798 162.049 42.9397C162.258 43.2089 162.478 43.4524 162.709 43.6703C162.94 43.8883 163.179 44.0592 163.427 44.183C163.674 44.3069 163.927 44.3518 164.183 44.3176L164.221 44.4201C164.075 44.4888 163.923 44.5425 163.766 44.5804ZM160.882 38.9597C160.818 38.7376 160.722 38.5368 160.594 38.3573C160.467 38.1794 160.306 38.0289 160.12 37.9151C159.931 37.7997 159.714 37.7421 159.466 37.7421C159.363 37.7421 159.261 37.7485 159.158 37.7612C159.056 37.7739 158.957 37.8021 158.863 37.8446V41.0362C159.008 41.0619 159.149 41.0791 159.286 41.0874C159.427 41.0961 159.568 41.1004 159.709 41.1002C160.187 41.1002 160.519 40.9701 160.702 40.7092C160.886 40.4486 160.978 40.0876 160.978 39.6261C160.978 39.4042 160.946 39.182 160.882 38.9597ZM170.277 42.5424C170.076 42.9654 169.809 43.3306 169.475 43.6383C169.142 43.946 168.755 44.1854 168.315 44.3561C167.875 44.5272 167.412 44.6126 166.925 44.6126C166.523 44.6126 166.106 44.5143 165.675 44.3177C165.244 44.1215 164.844 43.8622 164.489 43.5486C164.13 43.2326 163.833 42.8736 163.598 42.4719C163.363 42.0703 163.246 41.6644 163.246 41.2542C163.246 40.6306 163.303 40.0942 163.419 39.6455C163.534 39.1969 163.72 38.8168 163.976 38.5046C164.233 38.1927 164.57 37.9365 164.989 37.7356C165.408 37.535 165.92 37.3703 166.527 37.2421L166.694 37.2292C167.241 37.1866 167.749 37.2657 168.219 37.4664C168.689 37.6672 169.099 37.9492 169.45 38.3123C169.8 38.6756 170.076 39.1049 170.277 39.6004C170.477 40.0961 170.578 40.6173 170.578 41.1642C170.578 41.66 170.477 42.1193 170.277 42.5424ZM166.797 37.6529C166.69 37.6546 166.584 37.6616 166.478 37.6741L166.478 44.1452C166.581 44.1675 166.687 44.183 166.797 44.1922L166.797 37.6529ZM167.561 44.1584C167.789 44.118 168 44.0494 168.194 43.9524C168.527 43.7857 168.807 43.5637 169.033 43.2857C169.26 43.0082 169.431 42.6856 169.546 42.3181C169.661 41.9507 169.719 41.5619 169.719 41.1517C169.719 40.7331 169.657 40.3144 169.533 39.8955C169.409 39.4769 169.226 39.1008 168.982 38.7676C168.739 38.4344 168.439 38.1652 168.085 37.96C167.92 37.865 167.744 37.7917 167.561 37.7419L167.561 44.1584ZM167.339 37.6923C167.233 37.6739 167.126 37.6619 167.019 37.6564V44.2022H167.04C167.142 44.2022 167.242 44.1976 167.339 44.1884V37.6923ZM166.257 37.7089C166.059 37.7485 165.873 37.8086 165.7 37.8894C165.363 38.0477 165.079 38.2656 164.848 38.5433C164.617 38.8211 164.44 39.1415 164.316 39.5046C164.192 39.8679 164.13 40.2545 164.13 40.6646C164.13 41.092 164.194 41.5151 164.323 41.9336C164.451 42.3523 164.641 42.7304 164.893 43.0678C165.145 43.4055 165.451 43.6789 165.809 43.8883C165.951 43.9708 166.101 44.0374 166.258 44.0869L166.257 37.7089ZM178.182 37.569C178.177 37.5648 178.167 37.5671 178.15 37.5755C178.022 37.6125 177.895 37.6552 177.771 37.7037C177.639 37.7549 177.573 37.8447 177.573 37.9729L177.586 41.062V41.5876C177.586 42.0769 177.577 42.5662 177.56 43.0552C177.543 43.5409 177.513 44.026 177.47 44.5101C177.47 44.5273 177.459 44.5421 177.438 44.5549C177.417 44.5677 177.398 44.5657 177.381 44.5485C176.97 44.1981 176.56 43.8201 176.15 43.4142C175.739 43.0072 175.335 42.5927 174.939 42.1708C174.542 41.7488 174.151 41.3215 173.766 40.8891C173.394 40.4721 173.026 40.0512 172.663 39.6265C172.553 39.5083 172.446 39.3865 172.343 39.2612C172.24 39.136 172.133 39.0141 172.023 38.8959C171.997 39.1172 171.985 39.3398 171.984 39.5625C171.984 39.8873 171.988 40.212 171.997 40.5366C172.005 40.8614 172.018 41.1861 172.035 41.5107C172.07 42.1639 172.087 42.8179 172.087 43.4719C172.087 43.6173 172.1 43.7346 172.125 43.8244C172.151 43.9141 172.183 43.9847 172.221 44.036C172.26 44.0872 172.306 44.1237 172.362 44.1449C172.418 44.1663 172.475 44.1813 172.535 44.1897C172.604 44.2069 172.672 44.2261 172.74 44.2474C172.809 44.2688 172.89 44.3136 172.984 44.3819C173.001 44.3991 173.007 44.4182 173.003 44.4397C172.999 44.461 172.984 44.4716 172.958 44.4716C172.873 44.4631 172.789 44.4547 172.708 44.4459C172.627 44.4375 172.544 44.4289 172.458 44.4203C172.337 44.4031 172.215 44.3903 172.093 44.3817C171.971 44.3733 171.849 44.3691 171.727 44.369C171.569 44.3694 171.41 44.3801 171.253 44.401C171.091 44.4226 170.928 44.4459 170.766 44.4716C170.74 44.4803 170.721 44.4716 170.709 44.4459C170.696 44.4203 170.698 44.3991 170.715 44.3819C170.783 44.3222 170.845 44.2751 170.901 44.241C170.953 44.2087 171.006 44.1788 171.061 44.1512C171.163 44.1 171.255 44.0294 171.337 43.9397C171.418 43.85 171.458 43.7069 171.458 43.5102V37.5115L171.561 37.3063C171.569 37.2892 171.582 37.2765 171.599 37.2678C171.616 37.2594 171.629 37.2636 171.638 37.2806C172.548 38.2235 173.449 39.1742 174.343 40.1325C175.236 41.0921 176.12 42.0599 176.996 43.0359V42.9974C176.996 42.6044 176.994 42.2154 176.989 41.831C176.985 41.4465 176.979 41.0535 176.97 40.6518C176.962 40.2844 176.953 39.8936 176.945 39.479C176.936 39.0646 176.932 38.6736 176.932 38.3062C176.932 38.161 176.917 38.0434 176.887 37.9537C176.857 37.864 176.816 37.7956 176.765 37.7485C176.714 37.7017 176.658 37.6697 176.598 37.6525C176.539 37.6356 176.479 37.6228 176.419 37.6139C176.356 37.6065 176.294 37.5957 176.233 37.5819C176.177 37.5688 176.126 37.5399 176.086 37.4986C176.069 37.4815 176.067 37.4601 176.079 37.4345C176.092 37.4089 176.107 37.4005 176.124 37.4089C176.321 37.4345 176.504 37.4473 176.675 37.4473H177.214C177.325 37.4473 177.438 37.4454 177.553 37.4409C177.671 37.4368 177.789 37.439 177.906 37.4473C177.949 37.4473 177.996 37.4495 178.047 37.4538C178.094 37.4579 178.141 37.46 178.188 37.4601L178.214 37.5627C178.197 37.5712 178.186 37.5734 178.182 37.569ZM183.035 43.7985C183.008 43.9885 182.983 44.1787 182.958 44.3689C182.958 44.3947 182.94 44.4074 182.906 44.4074L182.894 44.4202C182.825 44.4458 182.77 44.4586 182.727 44.4586C182.53 44.4586 182.332 44.4568 182.131 44.4523C181.932 44.448 181.734 44.4458 181.535 44.4458C181.364 44.4458 181.197 44.4439 181.035 44.4396C180.869 44.4352 180.702 44.433 180.535 44.4331C180.305 44.4331 180.072 44.4352 179.837 44.4396C179.602 44.4439 179.369 44.4503 179.138 44.4586V44.3561C179.266 44.3561 179.371 44.3285 179.452 44.2727C179.531 44.2194 179.595 44.1466 179.638 44.0613C179.681 43.9759 179.708 43.8797 179.721 43.7728C179.734 43.6662 179.74 43.5572 179.74 43.4461V38.1138C179.74 37.9429 179.7 37.8319 179.619 37.7806C179.536 37.7286 179.448 37.6856 179.356 37.6525L179.183 37.5947C179.119 37.5735 179.052 37.5413 178.984 37.4986C178.967 37.4815 178.961 37.4623 178.965 37.4409C178.969 37.4197 178.984 37.4089 179.01 37.4089H182.663C182.697 37.3918 182.734 37.3768 182.772 37.364C182.809 37.3517 182.846 37.3367 182.881 37.319C182.924 37.3021 182.945 37.319 182.945 37.3703C182.921 37.5788 182.889 37.7862 182.849 37.992C182.81 38.1842 182.77 38.3787 182.727 38.5752C182.718 38.6009 182.699 38.6116 182.669 38.6073C182.639 38.603 182.624 38.5881 182.624 38.5624C182.607 38.2633 182.505 38.067 182.317 37.9727C182.129 37.8787 181.898 37.8317 181.625 37.8317H180.612V40.4595H182.099C182.141 40.4595 182.197 40.4467 182.265 40.421L182.471 40.3441C182.56 40.2948 182.654 40.256 182.752 40.2287C182.795 40.2117 182.816 40.2287 182.816 40.2799C182.808 40.3823 182.797 40.4936 182.784 40.6131C182.773 40.7246 182.758 40.8357 182.74 40.9463C182.722 41.0525 182.709 41.1595 182.701 41.2668C182.693 41.3741 182.68 41.481 182.663 41.5872C182.663 41.6129 182.652 41.6301 182.631 41.6385C182.609 41.6471 182.59 41.6429 182.573 41.6257C182.53 41.583 182.502 41.5404 182.49 41.4975C182.475 41.4503 182.46 41.4033 182.445 41.3566C182.427 41.3053 182.41 41.2541 182.393 41.2028C182.376 41.1515 182.346 41.1046 182.304 41.0618C182.261 41.0192 182.182 40.9872 182.067 40.9656C181.943 40.9433 181.82 40.9262 181.695 40.9144C181.565 40.9018 181.435 40.8954 181.304 40.8953H180.624V43.5358C180.753 43.724 180.934 43.867 181.169 43.9652C181.404 44.0637 181.633 44.1126 181.855 44.1126C182.154 44.1126 182.408 44.0337 182.617 43.8755C182.827 43.7175 182.966 43.4932 183.034 43.2026L183.137 43.2282C183.096 43.417 183.062 43.6072 183.035 43.7985ZM187.763 43.4204C187.605 43.6683 187.404 43.8797 187.16 44.055C186.917 44.2301 186.648 44.3671 186.353 44.465C186.058 44.5634 185.778 44.6124 185.513 44.6124C185.385 44.6124 185.25 44.5975 185.11 44.5675C184.968 44.5377 184.84 44.4887 184.725 44.4202C184.609 44.3519 184.515 44.2643 184.443 44.1574C184.37 44.0506 184.334 43.9161 184.334 43.7536C184.334 43.651 184.345 43.5484 184.366 43.446C184.387 43.3435 184.406 43.2453 184.424 43.151L184.488 42.8435C184.488 42.8178 184.505 42.8049 184.539 42.8049C184.573 42.8049 184.59 42.8178 184.59 42.8435V43.0357C184.59 43.2151 184.629 43.3734 184.706 43.5099C184.781 43.6449 184.881 43.7645 185 43.8624C185.12 43.9608 185.259 44.0334 185.417 44.0805C185.575 44.1274 185.735 44.1509 185.898 44.1509C186.052 44.1509 186.21 44.1253 186.372 44.0741C186.531 44.0245 186.681 43.9486 186.814 43.8497C186.946 43.7526 187.057 43.6307 187.141 43.4909C187.226 43.3499 187.269 43.194 187.269 43.023C187.269 42.8608 187.231 42.7005 187.154 42.5424C187.077 42.3844 186.974 42.2241 186.846 42.0617C186.71 41.8911 186.565 41.7284 186.41 41.5746C186.246 41.4102 186.079 41.2478 185.911 41.0875C185.73 40.9156 185.551 40.7425 185.372 40.5684C185.193 40.3933 185.034 40.2139 184.898 40.03C184.761 39.8464 184.65 39.6604 184.565 39.4724C184.479 39.2845 184.436 39.0924 184.436 38.8957C184.436 38.6054 184.518 38.3554 184.68 38.1458C184.842 37.9366 185.043 37.7656 185.282 37.6331C185.521 37.5007 185.782 37.4023 186.064 37.3383C186.346 37.2741 186.607 37.2421 186.846 37.2421C187.188 37.2421 187.5 37.2849 187.782 37.3702C187.808 37.3875 187.821 37.4045 187.821 37.4215C187.785 37.8547 187.733 38.2865 187.667 38.7161C187.658 38.7417 187.641 38.7546 187.616 38.7546C187.59 38.7546 187.573 38.7417 187.564 38.7161C187.496 38.417 187.366 38.1607 187.173 37.947C186.981 37.7335 186.727 37.6265 186.411 37.6265C186.086 37.6265 185.815 37.7312 185.597 37.9405C185.379 38.1501 185.27 38.417 185.27 38.7416C185.27 38.9127 185.306 39.0707 185.379 39.2159C185.451 39.3614 185.545 39.5023 185.661 39.6389C185.776 39.7757 185.911 39.9102 186.065 40.0426C186.222 40.1783 186.38 40.3129 186.539 40.4465C186.72 40.5935 186.898 40.7452 187.071 40.9015C187.241 41.0543 187.397 41.2216 187.539 41.4015C187.673 41.5725 187.785 41.7598 187.872 41.959C187.957 42.1557 188 42.3691 188 42.5999C188 42.8992 187.921 43.1726 187.763 43.4204ZM142.061 42.2203C141.947 42.4606 141.795 42.6682 141.606 42.8432C141.417 43.018 141.197 43.1539 140.947 43.2511C140.696 43.3483 140.433 43.3969 140.156 43.3969C139.928 43.3969 139.691 43.3411 139.446 43.2294C139.201 43.1179 138.974 42.9706 138.772 42.7923C138.568 42.6127 138.399 42.4086 138.266 42.1804C138.132 41.9521 138.065 41.7214 138.065 41.4883C138.065 41.1338 138.098 40.8289 138.164 40.5738C138.229 40.3189 138.335 40.1028 138.481 39.9256C138.626 39.7483 138.818 39.6026 139.056 39.4885C139.294 39.3744 139.586 39.2809 139.93 39.208L140.025 39.2007C140.336 39.1765 140.625 39.2214 140.892 39.3354C141.155 39.4469 141.393 39.6105 141.591 39.8163C141.791 40.0228 141.947 40.2668 142.061 40.5485C142.175 40.8301 142.232 41.1265 142.232 41.4373C142.232 41.7189 142.175 41.98 142.061 42.2203ZM140.084 39.4414C140.022 39.4424 139.961 39.4465 139.902 39.4535V43.1314C139.961 43.1439 140.022 43.1528 140.084 43.1581L140.084 39.4414ZM140.518 43.1388C140.643 43.1175 140.764 43.078 140.877 43.0218C141.067 42.9268 141.226 42.8008 141.355 42.6429C141.483 42.4851 141.581 42.3018 141.646 42.0929C141.712 41.884 141.745 41.663 141.745 41.4298C141.745 41.1919 141.709 40.954 141.639 40.716C141.568 40.478 141.464 40.2643 141.326 40.0749C141.19 39.8878 141.016 39.7314 140.816 39.6159C140.722 39.562 140.622 39.5203 140.518 39.4919V43.1388H140.518ZM140.392 39.4637C140.332 39.4534 140.271 39.4466 140.21 39.4434V43.1637H140.222C140.28 43.1637 140.337 43.1611 140.392 43.1558L140.392 39.4637ZM139.777 39.4733C139.668 39.4946 139.562 39.529 139.461 39.5758C139.269 39.6658 139.107 39.7897 138.976 39.9474C138.845 40.1052 138.744 40.2874 138.674 40.4937C138.603 40.7001 138.568 40.9199 138.568 41.1531C138.568 41.396 138.605 41.6363 138.678 41.8741C138.75 42.1122 138.858 42.3271 139.002 42.5188C139.142 42.708 139.319 42.8667 139.523 42.9851C139.603 43.0321 139.688 43.07 139.777 43.0982L139.777 39.4733Z" fill="#D9E2FC"/>
</g>
<g clip-path="url(#clip1_550_92)">
<path d="M39.0682 358.133C41.411 355.957 43.7936 355.162 46.4996 356.526C49.2603 357.915 49.9865 360.357 49.9616 363.274C49.892 372.247 49.9616 381.214 49.897 390.187C49.892 390.949 49.3548 391.71 49.0663 392.471C48.6982 391.705 48.0416 390.949 48.0167 390.177C47.9023 386.672 47.9769 383.167 47.962 379.657C47.9471 376.335 44.9676 374.447 42.0228 375.781C39.3069 377.012 36.7552 376.518 34.5118 374.719C31.5224 375.964 29.8063 377.744 30.1644 381.244C30.4927 384.393 30.2788 387.602 30.1893 390.775C30.1744 391.349 29.5924 391.908 29.2691 392.476C28.9358 391.922 28.314 391.374 28.309 390.82C28.2543 381.116 28.2394 371.411 28.309 361.707C28.324 359.314 29.6272 357.51 31.7959 356.486C34.5069 355.201 36.8994 355.962 39.0632 358.143L39.0682 358.133ZM47.957 374.906C47.957 370.304 47.9968 366.087 47.9371 361.875C47.9123 359.967 46.8727 358.335 45.0422 358.143C43.6345 357.994 42.0477 358.795 40.6649 359.433C40.1327 359.68 39.9337 360.644 39.491 361.45C38.3469 360.209 37.8396 359.591 37.2626 359.047C34.8352 356.783 30.6966 357.876 30.428 361.114C30.0599 365.583 30.3335 370.101 30.3335 374.862C31.2388 374.264 31.8208 373.834 32.4476 373.483C33.9 372.662 35.0938 371.599 36.7602 373.69C37.8893 375.104 40.446 375.084 41.61 373.547C42.9928 371.718 44.0374 372.524 45.3058 373.206C46.0867 373.626 46.803 374.165 47.957 374.916V374.906Z" fill="#D9E2FC"/>
<path d="M57.786 391.557C57.6766 391.744 57.3085 392.362 56.9404 392.98C56.5524 392.377 55.8958 391.809 55.8212 391.171C54.6572 380.73 53.6176 370.274 52.4487 359.833C51.8817 354.731 48.4296 351.019 43.3609 350.337C40.5853 349.961 37.6754 349.961 34.8948 350.322C29.8162 350.984 26.3144 354.717 25.7523 359.764C24.5983 370.126 23.5587 380.498 22.4047 390.859C22.3251 391.596 21.6984 392.273 21.3253 392.975C21.0418 392.239 20.4548 391.473 20.5245 390.771C21.569 380.236 22.6285 369.701 23.8373 359.181C24.658 352.072 31.3582 347.326 38.4763 348.493C39.5407 348.666 40.6997 348.161 41.8189 348.146C47.8128 348.072 53.6027 352.878 54.314 358.884C55.5824 369.557 56.5972 380.26 57.786 391.561V391.557Z" fill="#D9E2FC"/>
<path d="M59.7856 392.802C59.7856 386.163 59.8204 379.647 59.7458 373.132C59.7359 372.158 59.3429 371.12 58.8853 370.235C56.6071 365.83 55.7317 360.97 56.1147 356.259C56.3335 353.56 58.8853 351.043 60.681 347.939C62.7751 352.017 66.5754 354.672 65.3766 359.749C64.4663 363.61 64.4763 367.679 62.0091 371.1C61.641 371.609 61.7604 372.504 61.7604 373.226C61.7455 379.257 61.7355 385.293 61.7604 391.324C61.7653 392.58 61.6211 393.475 59.7807 392.802H59.7856ZM60.6661 369.206C62.7502 366.295 62.7254 365.395 60.6213 363.096C58.8555 365.044 59.129 367.026 60.6661 369.206ZM58.3531 361.578C58.6465 361.578 58.94 361.583 59.2385 361.588V355.236C56.9454 357.253 58.5918 359.467 58.3531 361.573V361.578ZM62.5164 354.86C61.5863 357.421 61.3425 359.591 63.0338 361.623C62.8 359.487 64.725 357.198 62.5164 354.86Z" fill="#D9E2FC"/>
<path d="M39.2224 378.842C40.4759 379.435 41.4657 379.899 42.4506 380.364C41.3861 380.681 40.3217 381.244 39.2572 381.244C38.0932 381.244 36.9243 380.72 35.7604 380.424C36.8795 379.914 37.9987 379.4 39.2274 378.842H39.2224Z" fill="#D9E2FC"/>
<path d="M37.5958 363.457C36.8298 364.065 36.5115 364.53 36.1483 364.564C35.1386 364.668 34.1039 364.678 33.1041 364.545C32.7957 364.505 32.562 363.902 32.2934 363.556C33.0942 363.136 33.8801 362.419 34.7058 362.374C35.5166 362.33 36.3672 362.963 37.5958 363.457Z" fill="#D9E2FC"/>
<path d="M44.7487 364.787C43.341 364.376 42.2467 364.06 41.1524 363.739C42.0676 363.254 42.953 362.488 43.9081 362.384C44.5199 362.32 45.2411 363.225 45.9176 363.699C45.5296 364.055 45.1466 364.416 44.7487 364.787Z" fill="#D9E2FC"/>
</g>
<path d="M8.44156 169.991V160.329H18.9091V169.991H26.1558L14.0779 182.069L2 169.991H8.44156Z" stroke="#D9E2FC"/>
<path d="M183.068 376.557C182.797 375.3 182.315 374.124 181.62 373.041C180.939 371.982 180.038 371.142 178.938 370.512C177.864 369.898 176.702 369.53 175.494 369.29C174.783 369.149 174.063 369.074 173.341 369.013C173.211 368.977 173.075 369.025 172.946 368.984L172.949 368.98C172.769 368.93 172.581 368.992 172.401 368.946C172.22 368.925 172.036 368.978 171.858 368.912C171.694 368.845 171.519 368.915 171.353 368.875C171.035 368.874 170.719 368.874 170.402 368.874C170.258 368.908 170.11 368.86 169.966 368.901C169.677 368.887 169.387 368.937 169.114 368.995C168.351 369.157 167.59 369.324 166.819 369.45C165.843 369.61 164.897 369.879 163.987 370.274C162.332 370.993 161.097 372.145 160.288 373.748C159.974 374.37 159.746 375.028 159.484 375.671C159.292 376.143 159.224 376.647 159.212 377.157C159.189 377.257 159.187 377.358 159.187 377.461C159.187 382.413 159.187 387.366 159.187 392.319V393.934C159.187 394.582 159.188 395.23 159.186 395.879C159.186 395.947 159.207 396.019 159.166 396.083L159.162 396.08C159.132 396.678 159.158 397.277 159.148 397.874C159.147 397.943 159.168 398.015 159.128 398.08L159.123 398.078C159.097 398.166 159.112 398.256 159.111 398.344C159.101 398.912 159.126 399.48 159.098 400.048C159.096 400.124 159.093 400.2 159.092 400.276C159.089 400.873 159.086 401.469 159.082 402.066C159.058 402.742 159.079 403.417 159.07 404.093C159.07 404.161 159.091 404.234 159.049 404.298L159.045 404.297C159.017 404.941 159.042 405.585 159.032 406.23C159.028 406.523 159.048 406.817 159.02 407.11C159.018 408.069 159.015 409.028 159.013 409.988C159.012 410.315 159.021 410.639 159.087 410.965C159.217 411.611 159.394 412.239 159.693 412.828C160.289 414 161.18 414.913 162.256 415.656C163.27 416.355 164.385 416.853 165.562 417.217C166.821 417.606 168.109 417.838 169.423 417.934C169.578 417.974 169.738 417.918 169.893 417.965H171.514C171.681 417.917 171.854 417.976 172.021 417.933C172.059 417.911 172.093 417.888 172.143 417.889C172.833 417.901 173.507 417.767 174.178 417.644C175.449 417.412 176.676 417.026 177.846 416.476C179.23 415.825 180.471 414.978 181.48 413.824C181.789 413.472 182.131 413.14 182.308 412.688C182.501 412.198 182.645 411.694 182.793 411.19C182.876 410.905 182.913 410.612 182.966 410.323C183.019 410.261 182.992 410.188 182.992 410.121C182.994 408.564 182.993 407.008 182.993 405.452C182.993 404.113 182.993 402.774 182.994 401.435C182.994 401.367 182.973 401.295 183.015 401.23L183.019 401.233C183.043 401.164 183.031 401.094 183.031 401.024C183.032 399.881 183.032 398.739 183.033 397.596C183.033 397.527 183.015 397.455 183.051 397.389L183.056 397.391C183.084 397.324 183.07 397.253 183.07 397.184C183.071 395.793 183.07 394.402 183.071 393.011C183.071 391.863 183.071 390.715 183.07 389.567C183.07 389.498 183.084 389.427 183.055 389.359C182.945 389.059 182.801 388.776 182.644 388.499C181.965 387.297 180.997 386.415 179.715 385.877C178.53 385.38 177.278 385.22 176.008 385.141C175.802 385.095 175.591 385.152 175.384 385.11L175.387 385.105C174.806 385.071 174.224 385.078 173.643 385.101L173.646 385.106C173.58 385.141 173.508 385.121 173.439 385.124C173.21 385.134 172.98 385.106 172.751 385.14C172.245 385.135 171.747 385.196 171.253 385.301C170.593 385.442 169.984 385.669 169.59 386.262C169.554 386.316 169.512 386.364 169.438 386.366C169.377 386.315 169.407 386.246 169.407 386.187C169.406 383.585 169.406 380.982 169.407 378.38C169.407 378.32 169.38 378.252 169.435 378.198C169.478 378.16 169.522 378.123 169.562 378.083C170.385 377.246 171.681 377.177 172.624 377.837C172.858 378 172.966 378.201 172.918 378.483C172.912 378.514 172.863 378.543 172.906 378.581C172.951 378.644 172.928 378.717 172.928 378.785C172.93 380.147 172.929 381.509 172.93 382.871C172.931 382.94 172.912 383.012 172.95 383.078C172.993 383.094 173.039 383.088 173.083 383.088C176.388 383.089 179.693 383.089 182.997 383.088C183.053 383.088 183.114 383.107 183.165 383.065C183.166 381.204 183.166 379.343 183.169 377.482C183.169 377.17 183.133 376.861 183.068 376.557ZM169.901 394.694C170.102 394.691 170.248 394.756 170.285 394.976C170.296 395.038 170.344 395.092 170.356 395.153C170.436 395.528 170.711 395.639 171.049 395.665C171.27 395.69 171.489 395.697 171.709 395.661C172.232 395.622 172.723 395.461 173.211 395.283C174.076 394.966 174.917 394.584 175.809 394.342C175.975 394.297 176.147 394.275 176.317 394.242C176.524 394.206 176.732 394.22 176.94 394.235C177.601 394.336 177.889 394.792 178.049 395.375C178.127 395.659 178.084 395.946 178.096 396.231C178.102 396.384 178.102 396.537 178.105 396.69C178.117 397.293 178.134 397.897 178.096 398.502C177.746 398.63 177.375 398.659 177.012 398.723C176.383 398.832 175.751 398.923 175.12 399.023C174.642 399.099 174.164 399.183 173.685 399.251C173.512 399.275 173.404 399.358 173.337 399.508C173.233 399.737 173.197 399.98 173.178 400.228C173.131 400.394 173.188 400.566 173.146 400.732L173.142 400.729C173.111 400.921 173.108 401.113 173.144 401.304L173.149 401.301C173.166 401.803 173.175 402.303 173.144 402.804C173.14 402.88 173.142 402.958 173.129 403.032C173.047 403.536 172.905 403.663 172.379 403.726C171.946 403.778 171.508 403.813 171.098 403.981C170.675 404.154 170.359 404.431 170.224 404.881C170.212 404.923 170.198 404.967 170.198 405.01C170.199 405.604 170.201 406.198 170.203 406.792C170.228 406.84 170.218 406.893 170.218 406.943C170.219 408.687 170.219 410.432 170.218 412.176C170.218 412.227 170.228 412.279 170.204 412.327C169.959 412.528 169.724 412.746 169.387 412.784C169.261 412.834 169.124 412.774 168.997 412.819C168.872 412.835 168.721 412.796 168.682 412.986C168.672 413.034 168.603 413.015 168.56 413.015C168.174 413.017 167.788 413.017 167.402 413.015C167.329 413.015 167.226 413.036 167.293 412.899C167.322 412.838 167.282 412.821 167.227 412.823C167.202 412.823 167.175 412.826 167.15 412.821C166.862 412.766 166.859 412.766 166.835 412.469C166.827 412.376 166.799 412.337 166.704 412.376C166.534 412.446 166.553 412.349 166.583 412.242C166.652 412.002 166.787 411.79 166.875 411.558C166.905 411.484 166.89 411.406 166.89 411.33C166.891 409.126 166.891 406.921 166.891 404.717C166.892 404.641 166.876 404.563 166.906 404.489L166.91 404.492C166.948 404.419 166.929 404.341 166.929 404.265C166.93 401.892 166.929 399.519 166.93 397.145C166.93 397.069 166.919 396.991 166.941 396.916C166.942 396.827 166.935 396.737 166.944 396.648C166.956 396.527 166.921 396.445 166.809 396.382C166.696 396.319 166.611 395.895 166.688 395.796C166.72 395.756 166.781 395.734 166.841 395.736C166.954 395.74 167.013 395.69 166.991 395.575C166.915 395.166 167.133 395.003 167.552 394.863C167.94 394.732 168.348 394.7 168.757 394.694C169.138 394.677 169.519 394.677 169.901 394.694Z" fill="#D9E2FC"/>
<defs>
<clipPath id="clip0_550_92">
<rect width="80.5195" height="80.5195" fill="white" transform="translate(107.48 0.0947876)"/>
</clipPath>
<clipPath id="clip1_550_92">
<rect width="45.0909" height="45.0909" fill="white" transform="translate(20.5195 347.939)"/>
</clipPath>
</defs>
</svg>
