<svg width="131" height="271" viewBox="0 0 131 271" fill="none" xmlns="http://www.w3.org/2000/svg">
<path fill-rule="evenodd" clip-rule="evenodd" d="M23.1526 9H23.1419H10.218L10.527 12H22.8451C22.6646 14.628 22.1183 20.1957 21.9179 22.7292L14.9992 24.6768V24.6826L14.9839 24.6899L8.06066 22.2539L7.58636 16.5H10.9799L11.2201 19.5945L14.9901 21H14.9992L18.763 19.6501L19.1501 15H7.43489C7.37828 14.3985 6.65 6.588 6.52301 6H23.4556C23.3607 6.99 23.2643 8.007 23.1526 9ZM1.5 0L3.95719 27.2219L14.9839 30L26.0398 27.1663L28.5 0H1.5Z" fill="#D9E2FC"/>
<path d="M40.625 57C40.3661 57 40.1562 57.2099 40.1562 57.4688V75.3755C40.1562 75.543 40.2457 75.6979 40.3908 75.7815L49.5009 81.0364C49.6427 81.1181 49.8168 81.12 49.9604 81.0414L59.6002 75.759C59.7504 75.6767 59.8438 75.5192 59.8438 75.348V57.4688C59.8438 57.2099 59.6339 57 59.375 57H40.625ZM37.3438 57.4688C37.3438 55.6566 38.8128 54.1875 40.625 54.1875H59.375C61.1872 54.1875 62.6562 55.6566 62.6562 57.4688V75.348C62.6562 76.5465 62.0028 77.6495 60.9519 78.2255L51.3119 83.5078C50.3072 84.0583 49.0881 84.045 48.0956 83.4725L38.9855 78.2179C37.9697 77.6319 37.3438 76.5484 37.3438 75.3755V57.4688ZM44.375 62.1563C44.375 61.3796 45.0046 60.75 45.7812 60.75H54.4351C55.2118 60.75 55.8414 61.3796 55.8414 62.1563V73.5866C55.8414 74.1191 55.5404 74.606 55.064 74.8444L50.7371 77.0077C50.3412 77.2057 49.8752 77.2057 49.4793 77.0077L45.1524 74.8444C44.6759 74.606 44.375 74.1191 44.375 73.5866V72.5048C44.375 71.7281 45.0046 71.0986 45.7812 71.0986C46.5579 71.0986 47.1875 71.7281 47.1875 72.5048V72.7174L50.1082 74.1778L53.0289 72.7174V69.5841H48.125C47.3484 69.5841 46.7188 68.9545 46.7188 68.1779C46.7188 67.4012 47.3484 66.7716 48.125 66.7716H53.0289V63.5625H45.7812C45.0046 63.5625 44.375 62.9329 44.375 62.1563Z" fill="#D9E2FC"/>
<g clip-path="url(#clip0_539_81)">
<path d="M53.06 200.3C52.3907 201.252 51.6613 202.16 50.8762 203.019C52.9662 205.048 54.9112 205.998 55.9887 205.374C57.0687 204.751 57.2175 202.593 56.5062 199.769C55.44 200.006 54.2812 200.186 53.06 200.3ZM51.4225 200.409C50.4746 200.448 49.5254 200.448 48.5775 200.409C49.0487 201.024 49.525 201.594 50 202.114C50.475 201.594 50.95 201.024 51.4225 200.409ZM57.7225 190.541C61.0537 191.496 63.2287 193.084 63.2287 195C63.2287 196.916 61.0537 198.504 57.7225 199.459C58.56 202.821 58.2737 205.499 56.615 206.456C54.955 207.415 52.4925 206.325 50 203.919C47.5075 206.325 45.045 207.415 43.385 206.456C41.7262 205.499 41.4387 202.821 42.2775 199.459C38.9462 198.504 36.7712 196.916 36.7712 195C36.7712 193.084 38.9462 191.496 42.2775 190.541C41.44 187.179 41.7262 184.501 43.385 183.544C45.045 182.585 47.5075 183.675 50 186.081C52.4925 183.675 54.955 182.585 56.615 183.544C58.2737 184.501 58.5612 187.179 57.7225 190.541ZM56.5062 190.231C57.2187 187.406 57.0687 185.249 55.99 184.626C54.9112 184.003 52.9662 184.953 50.8775 186.981C51.6162 187.785 52.3512 188.699 53.06 189.7C54.2825 189.813 55.44 189.993 56.5062 190.231ZM43.4937 199.769C42.7812 202.594 42.9312 204.751 44.01 205.374C45.0887 205.998 47.0337 205.048 49.1225 203.019C48.3379 202.16 47.6089 201.252 46.94 200.3C45.7811 200.196 44.63 200.019 43.4937 199.769ZM48.5775 189.591C49.5254 189.552 50.4746 189.552 51.4225 189.591C50.9731 189.003 50.4985 188.435 50 187.888C49.525 188.408 49.05 188.976 48.5775 189.591ZM46.94 189.7C47.6097 188.748 48.3395 187.84 49.125 186.981C47.0337 184.953 45.0875 184.003 44.0112 184.626C42.9312 185.249 42.7825 187.408 43.4937 190.231C44.56 189.994 45.7187 189.814 46.94 189.7ZM52.3675 199.1C53.2573 197.794 54.0482 196.424 54.7337 195C54.0482 193.576 53.2573 192.206 52.3675 190.9C50.7914 190.782 49.2086 190.782 47.6325 190.9C46.7427 192.206 45.9517 193.576 45.2662 195C45.9517 196.424 46.7427 197.794 47.6325 199.1C49.2086 199.218 50.7914 199.218 52.3675 199.1ZM53.9725 198.936C54.7412 198.836 55.4725 198.708 56.16 198.556C55.9352 197.851 55.6799 197.156 55.395 196.473C54.955 197.313 54.4804 198.134 53.9725 198.935V198.936ZM46.0275 191.063C45.2587 191.163 44.5275 191.291 43.84 191.443C44.0525 192.113 44.3075 192.81 44.605 193.526C45.045 192.686 45.5196 191.863 46.0275 191.063ZM43.84 198.555C44.5275 198.706 45.2587 198.834 46.0275 198.935C45.5196 198.134 45.045 197.313 44.605 196.473C44.3075 197.188 44.0525 197.885 43.84 198.555ZM42.6175 198.249C42.9437 197.206 43.3675 196.114 43.88 194.999C43.3675 193.884 42.9437 192.791 42.6175 191.749C39.815 192.545 38.0212 193.754 38.0212 194.999C38.0212 196.244 39.815 197.453 42.6175 198.249ZM56.16 191.443C55.4725 191.291 54.7412 191.164 53.9725 191.063C54.4804 191.863 54.955 192.685 55.395 193.525C55.6925 192.81 55.9475 192.113 56.16 191.443ZM57.3825 191.749C57.0562 192.791 56.6325 193.884 56.12 194.999C56.6325 196.114 57.0562 197.206 57.3825 198.249C60.185 197.453 61.9787 196.244 61.9787 194.999C61.9787 193.754 60.185 192.545 57.3825 191.749ZM50 197.35C49.6914 197.35 49.3858 197.289 49.1007 197.171C48.8156 197.053 48.5565 196.88 48.3383 196.662C48.1201 196.444 47.947 196.184 47.8289 195.899C47.7108 195.614 47.65 195.309 47.65 195C47.65 194.691 47.7108 194.386 47.8289 194.101C47.947 193.816 48.1201 193.557 48.3383 193.338C48.5565 193.12 48.8156 192.947 49.1007 192.829C49.3858 192.711 49.6914 192.65 50 192.65C50.6232 192.65 51.221 192.898 51.6617 193.338C52.1024 193.779 52.35 194.377 52.35 195C52.35 195.623 52.1024 196.221 51.6617 196.662C51.221 197.102 50.6232 197.35 50 197.35Z" fill="#D9E2FC"/>
</g>
<path fill-rule="evenodd" clip-rule="evenodd" d="M33 247H15V265H33V247ZM22.2923 262.6H20.7882V256.653H18.6316V255.413H24.4488V256.653H22.2923V262.6ZM30.9472 260.458C30.9472 261.883 29.8415 262.784 28.0486 262.784C26.3303 262.784 25.2445 261.963 25.1599 260.687L25.1549 260.608H26.6042L26.6092 260.658C26.664 261.196 27.2467 261.559 28.0884 261.559C28.8902 261.559 29.4431 261.176 29.4431 260.623V260.618C29.4431 260.145 29.0894 259.881 28.198 259.696L27.4409 259.542C25.9468 259.238 25.3043 258.541 25.3043 257.45V257.445C25.3043 256.11 26.4498 255.229 28.0435 255.229C29.722 255.229 30.7081 256.115 30.8027 257.316L30.8077 257.38H29.3933L29.3833 257.321C29.2986 256.808 28.8006 256.449 28.0435 256.449C27.3014 256.454 26.8084 256.793 26.8084 257.331V257.336C26.8084 257.804 27.1571 258.083 28.0037 258.257L28.7657 258.411C30.2848 258.725 30.9472 259.333 30.9472 260.453V260.458Z" fill="#D9E2FC"/>
<g clip-path="url(#clip1_539_81)">
<path d="M123.5 163.688V152.438H121.625V165.562H129.125V163.688H123.5Z" fill="#D9E2FC"/>
<path d="M117.875 152.438H114.125C113.628 152.438 113.151 152.635 112.799 152.987C112.448 153.338 112.25 153.815 112.25 154.312V163.688C112.25 164.185 112.448 164.662 112.799 165.013C113.151 165.365 113.628 165.562 114.125 165.562H115.062V167.438C115.062 167.935 115.26 168.412 115.612 168.763C115.963 169.115 116.44 169.312 116.938 169.312H118.812V167.438H116.938V165.562H117.875C118.372 165.562 118.849 165.365 119.201 165.013C119.552 164.662 119.75 164.185 119.75 163.688V154.312C119.75 153.815 119.552 153.338 119.201 152.987C118.849 152.635 118.372 152.438 117.875 152.438ZM114.125 163.688V154.312H117.875V163.688H114.125Z" fill="#D9E2FC"/>
<path d="M108.5 165.562H102.875V163.688H108.5V159.938H104.75C104.253 159.938 103.776 159.74 103.424 159.388C103.073 159.037 102.875 158.56 102.875 158.062V154.312C102.875 153.815 103.073 153.338 103.424 152.987C103.776 152.635 104.253 152.438 104.75 152.438H110.375V154.312H104.75V158.062H108.5C108.997 158.062 109.474 158.26 109.826 158.612C110.177 158.963 110.375 159.44 110.375 159.938V163.688C110.375 164.185 110.177 164.662 109.826 165.013C109.474 165.365 108.997 165.562 108.5 165.562Z" fill="#D9E2FC"/>
</g>
<defs>
<clipPath id="clip0_539_81">
<rect width="30" height="30" fill="white" transform="translate(35 180)"/>
</clipPath>
<clipPath id="clip1_539_81">
<rect width="30" height="30" fill="white" transform="translate(101 144)"/>
</clipPath>
</defs>
</svg>
